<svg width="1280" height="720" xmlns="http://www.w3.org/2000/svg" xmlns:xlink="http://www.w3.org/1999/xlink" overflow="hidden"><g><rect x="0" y="0" width="1280" height="720" fill="transparent"/><path d="M661.095 689.205C648.92 701.245 629.29 701.135 617.25 688.961L315.362 383.691C303.322 371.516 303.432 351.886 315.607 339.846L620.876 37.9587C633.051 25.9186 652.681 26.028 664.721 38.2029L966.608 343.472C978.648 355.647 978.539 375.277 966.364 387.317Z" fill="#D1D1D1" fill-rule="evenodd"/><path d="M770.885 507.025C785.319 521.62 785.187 545.153 770.592 559.587L664.886 664.122C650.291 678.555 626.758 678.424 612.324 663.829L507.789 558.123C493.355 543.527 493.487 519.995 508.082 505.561L613.788 401.026C628.383 386.592 651.916 386.723 666.35 401.319Z" fill="#C07801" fill-rule="evenodd"/><path d="M751.249 510.838C763.529 523.255 763.417 543.275 751 555.555L661.072 644.486C648.655 656.766 628.635 656.654 616.356 644.237L527.424 554.309C515.145 541.892 515.256 521.872 527.673 509.593L617.601 420.661C630.018 408.382 650.038 408.493 662.318 420.91Z" fill="#FEA003" fill-rule="evenodd"/><path d="M940.462 339.326C954.896 353.921 954.765 377.454 940.169 391.888L834.463 496.423C819.868 510.857 796.335 510.725 781.901 496.13L677.366 390.424C662.933 375.829 663.064 352.296 677.659 337.862L783.365 233.327C797.961 218.893 821.493 219.025 835.927 233.62Z" fill="#4472C4" fill-rule="evenodd"/><path d="M920.827 343.139C933.106 355.556 932.995 375.576 920.578 387.856L830.65 476.788C818.233 489.067 798.213 488.955 785.934 476.538L697.002 386.61C684.723 374.194 684.834 354.173 697.251 341.894L787.179 252.962C799.596 240.683 819.616 240.795 831.895 253.212Z" fill="#9DC3E6" fill-rule="evenodd"/><path d="M773.111 170.1C787.545 184.695 787.413 208.228 772.818 222.662L667.112 327.197C652.517 341.631 628.984 341.499 614.55 326.904L510.015 221.198C495.581 206.603 495.713 183.07 510.308 168.636L616.014 64.1011C630.609 49.6674 654.142 49.7985 668.576 64.3939Z" fill="#016168" fill-rule="evenodd"/><path d="M753.475 173.913C765.755 186.33 765.643 206.35 753.226 218.63L663.298 307.561C650.881 319.841 630.861 319.729 618.582 307.312L529.65 217.384C517.371 204.968 517.483 184.947 529.899 172.668L619.827 83.7364C632.244 71.4571 652.264 71.5686 664.544 83.9855Z" fill="#01818A" fill-rule="evenodd"/><path d="M603.534 337.799C617.967 352.394 617.836 375.927 603.241 390.361L497.535 494.896C482.939 509.329 459.407 509.198 444.973 494.603L340.438 388.897C326.004 374.301 326.135 350.769 340.731 336.335L446.437 231.8C461.032 217.366 484.565 217.497 498.998 232.093Z" fill="#02950B" fill-rule="evenodd"/><path d="M583.898 341.612C596.177 354.029 596.066 374.049 583.649 386.328L493.721 475.26C481.304 487.54 461.284 487.428 449.005 475.011L360.073 385.083C347.794 372.666 347.905 352.646 360.322 340.367L450.25 251.435C462.667 239.156 482.687 239.267 494.966 251.684Z" fill="#7DB61C" fill-rule="evenodd"/><path d="M746.793 582.608C764.846 600.864 764.682 630.298 746.426 648.351 728.171 666.405 698.737 666.241 680.683 647.985 662.63 629.729 662.794 600.295 681.049 582.242 699.305 564.189 728.739 564.352 746.793 582.608Z" fill="#D1D1D1" fill-rule="evenodd"/><path d="M676.293 615.489C675.997 594.617 692.678 577.458 713.549 577.163 734.421 576.868 751.58 593.548 751.875 614.42 752.171 635.291 735.49 652.451 714.619 652.746 693.747 653.041 676.588 636.361 676.293 615.489Z" fill="#FEA003" fill-rule="evenodd"/><text fill="#FFFFFF" font-family="Arial Black,Arial Black_MSFontService,sans-serif" font-weight="900" font-size="24" transform="matrix(0.9999 -0.0141457 0.0141457 0.9999 704.193 623)">O</text><path d="M920.755 252.565C938.809 270.821 938.645 300.255 920.389 318.308 902.134 336.362 872.699 336.198 854.646 317.942 836.593 299.687 836.757 270.252 855.012 252.199 873.268 234.146 902.702 234.31 920.755 252.565Z" fill="#D1D1D1" fill-rule="evenodd"/><path d="M850.345 287.567C848.878 266.745 864.568 248.676 885.391 247.21 906.213 245.743 924.282 261.433 925.748 282.256 927.215 303.078 911.525 321.146 890.703 322.613 869.88 324.08 851.812 308.39 850.345 287.567Z" fill="#9DC3E6" fill-rule="evenodd"/><text fill="#FFFFFF" font-family="Arial Black,Arial Black_MSFontService,sans-serif" font-weight="900" font-size="24" transform="matrix(0.997528 -0.0702724 0.0702724 0.997528 879.27 293)">D</text><path d="M425.41 406.594C443.464 424.849 443.3 454.283 425.044 472.337 406.789 490.39 377.354 490.226 359.301 471.971 341.248 453.715 341.412 424.281 359.667 406.227 377.923 388.174 407.357 388.338 425.41 406.594Z" fill="#D1D1D1" fill-rule="evenodd"/><path d="M355 439C355 418.013 371.789 401 392.5 401 413.211 401 430 418.013 430 439 430 459.987 413.211 477 392.5 477 371.789 477 355 459.987 355 439Z" fill="#7DB61C" fill-rule="evenodd"/><text fill="#FFFFFF" font-family="Arial Black,Arial Black_MSFontService,sans-serif" font-weight="900" font-size="24" transform="translate(383.368 447)">A</text><path d="M596.396 78.4089C614.449 96.6645 614.285 126.099 596.03 144.152 577.774 162.205 548.34 162.042 530.286 143.786 512.233 125.53 512.397 96.0961 530.653 78.0427 548.908 59.9894 578.342 60.1533 596.396 78.4089Z" fill="#D1D1D1" fill-rule="evenodd"/><path d="M526 111C526 90.0132 542.789 73 563.5 73 584.211 73 601 90.0132 601 111 601 131.987 584.211 149 563.5 149 542.789 149 526 131.987 526 111Z" fill="#01818A" fill-rule="evenodd"/><text fill="#FFFFFF" font-family="Arial Black,Arial Black_MSFontService,sans-serif" font-weight="900" font-size="24" transform="translate(555.687 118)">F</text><g><g><g><path d="M849.978 387.946C849.98 395.154 844.138 400.998 836.93 401 833.672 401.001 830.531 399.783 828.125 397.585L779.458 348.869C774.592 343.551 774.958 335.295 780.277 330.429 785.258 325.871 792.894 325.865 797.883 330.415L846.55 379.131C848.757 381.536 849.981 384.682 849.978 387.946M851.978 387.946C851.982 384.166 850.559 380.523 847.994 377.746L799.266 328.97C793.143 323.348 783.621 323.754 777.999 329.878 772.707 335.641 772.714 344.497 778.013 350.253L826.741 399.03C832.861 404.656 842.382 404.255 848.008 398.135 850.562 395.357 851.979 391.72 851.978 387.946Z" stroke="#F2F2F2"/><path d="M825.107 364C825.107 363.172 824.436 362.5 823.607 362.5 822.779 362.5 822.107 363.171 822.107 363.999 822.107 364.828 822.778 365.5 823.607 365.5 824.004 365.5 824.386 365.342 824.667 365.061 824.949 364.78 825.107 364.398 825.107 364Z" stroke="#F2F2F2"/><path d="M821.571 367.536C821.571 366.708 820.9 366.036 820.071 366.036 819.243 366.035 818.571 366.707 818.571 367.535 818.571 368.364 819.242 369.035 820.071 369.036 820.469 369.036 820.851 368.878 821.132 368.596 821.413 368.315 821.571 367.934 821.571 367.536Z" stroke="#F2F2F2"/><path d="M818.036 371.071C818.036 370.243 817.365 369.571 816.536 369.571 815.708 369.57 815.036 370.242 815.036 371.07 815.036 371.899 815.707 372.57 816.536 372.571 816.933 372.571 817.315 372.413 817.596 372.132 817.878 371.851 818.036 371.469 818.036 371.071Z" stroke="#F2F2F2"/><path d="M814.5 374.607C814.5 373.779 813.829 373.107 813 373.107 812.172 373.107 811.5 373.778 811.5 374.606 811.5 375.435 812.171 376.107 813 376.107 813.398 376.107 813.78 375.949 814.061 375.667 814.342 375.386 814.5 375.005 814.5 374.607Z" stroke="#F2F2F2"/><path d="M814.5 353.393C814.5 352.565 813.828 351.893 812.999 351.894 812.171 351.894 811.5 352.566 811.5 353.394 811.5 354.223 812.172 354.894 813.001 354.894 813.398 354.893 813.78 354.735 814.061 354.454 814.343 354.173 814.501 353.791 814.5 353.393Z" stroke="#F2F2F2"/><path d="M810.964 356.929C810.964 356.101 810.292 355.429 809.463 355.43 808.635 355.43 807.964 356.102 807.964 356.93 807.964 357.759 808.636 358.43 809.465 358.43 809.862 358.43 810.244 358.271 810.525 357.99 810.806 357.709 810.964 357.327 810.964 356.929Z" stroke="#F2F2F2"/><path d="M807.429 360.464C807.429 359.636 806.757 358.964 805.928 358.965 805.1 358.965 804.429 359.637 804.429 360.465 804.429 361.294 805.101 361.965 805.93 361.965 806.327 361.965 806.709 361.806 806.99 361.525 807.271 361.244 807.429 360.862 807.429 360.464Z" stroke="#F2F2F2"/><path d="M803.893 364C803.893 363.172 803.221 362.5 802.392 362.501 801.564 362.501 800.893 363.173 800.893 364.001 800.893 364.83 801.565 365.501 802.394 365.501 802.791 365.5 803.173 365.342 803.454 365.061 803.735 364.78 803.893 364.398 803.893 364Z" stroke="#F2F2F2"/><path d="M821.571 360.464C821.571 359.636 820.899 358.964 820.07 358.965 819.242 358.965 818.571 359.637 818.571 360.465 818.571 361.294 819.243 361.965 820.072 361.965 820.469 361.965 820.851 361.806 821.132 361.525 821.414 361.244 821.572 360.862 821.571 360.464Z" stroke="#F2F2F2"/><path d="M818.036 364C818.036 363.172 817.365 362.5 816.536 362.5 815.708 362.5 815.036 363.171 815.036 363.999 815.036 364.828 815.707 365.5 816.536 365.5 816.933 365.5 817.315 365.342 817.596 365.061 817.878 364.78 818.036 364.398 818.036 364Z" stroke="#F2F2F2"/><path d="M814.5 367.536C814.5 366.708 813.829 366.036 813 366.036 812.172 366.035 811.5 366.707 811.5 367.535 811.5 368.364 812.171 369.035 813 369.036 813.398 369.036 813.78 368.878 814.061 368.596 814.342 368.315 814.5 367.934 814.5 367.536Z" stroke="#F2F2F2"/><path d="M810.964 371.071C810.964 370.243 810.292 369.571 809.463 369.572 808.635 369.572 807.964 370.244 807.964 371.072 807.964 371.901 808.636 372.572 809.465 372.572 809.862 372.572 810.244 372.413 810.525 372.132 810.806 371.851 810.964 371.469 810.964 371.071Z" stroke="#F2F2F2"/><path d="M818.036 356.929C818.036 356.101 817.365 355.429 816.536 355.429 815.708 355.428 815.036 356.1 815.036 356.928 815.036 357.757 815.707 358.428 816.536 358.429 816.933 358.429 817.315 358.271 817.596 357.99 817.878 357.709 818.036 357.327 818.036 356.929Z" stroke="#F2F2F2"/><path d="M814.5 360.464C814.5 359.636 813.828 358.964 812.999 358.965 812.171 358.965 811.5 359.637 811.5 360.465 811.5 361.294 812.172 361.965 813.001 361.965 813.398 361.965 813.78 361.806 814.061 361.525 814.343 361.244 814.501 360.862 814.5 360.464Z" stroke="#F2F2F2"/><path d="M810.964 364C810.964 363.172 810.292 362.5 809.463 362.501 808.635 362.501 807.964 363.173 807.964 364.001 807.964 364.83 808.636 365.501 809.465 365.501 809.862 365.5 810.244 365.342 810.525 365.061 810.806 364.78 810.964 364.398 810.964 364Z" stroke="#F2F2F2"/><path d="M807.429 367.536C807.429 366.708 806.758 366.036 805.929 366.036 805.101 366.035 804.429 366.707 804.429 367.535 804.429 368.364 805.1 369.035 805.929 369.036 806.327 369.036 806.709 368.878 806.99 368.596 807.271 368.315 807.429 367.934 807.429 367.536Z" stroke="#F2F2F2"/></g></g></g><g><g><g><path d="M630.018 235.94C630.016 235.945 630.019 235.951 630.025 235.952 630.026 235.953 630.027 235.953 630.028 235.953L630.036 235.949 664 187 647 187 657.58 154.24 632.42 154.24 624 199 641 199ZM626.411 197 634.079 156.24 654.832 156.24 645.097 186.385 644.252 189 660.178 189 635.511 224.549C635.491 224.577 635.484 224.574 635.493 224.541L642.917 199.57 643.681 197 626.411 197Z" stroke="#FFFFFF"/></g></g></g><g><g><g><path d="M515.6 385 476.5 317C475.436 315.095 473.03 314.412 471.124 315.476 470.485 315.833 469.957 316.36 469.6 317L430.4 385C429.304 386.927 429.978 389.379 431.905 390.475 432.513 390.821 433.201 391.002 433.9 391L512.1 391C514.317 391.005 516.12 389.212 516.125 386.995 516.127 386.296 515.946 385.608 515.6 385ZM513.839 388.019C513.48 388.637 512.815 389.012 512.1 389L433.9 389C433.185 389.013 432.52 388.637 432.161 388.018 431.788 387.4 431.777 386.628 432.133 386L471.348 317.971C471.877 317.032 473.067 316.699 474.007 317.228 474.328 317.408 474.591 317.676 474.766 318L513.852 385.971C514.219 386.606 514.214 387.389 513.839 388.019Z" stroke="#FFFFFF"/><path d="M473 378.98C472.395 378.998 471.812 378.758 471.394 378.32 470.962 377.889 470.727 377.3 470.744 376.691 470.719 376.083 470.953 375.494 471.387 375.068 471.816 374.646 472.398 374.417 473 374.436 473.614 374.421 474.208 374.65 474.652 375.074 475.1 375.49 475.345 376.08 475.322 376.691 475.337 377.303 475.091 377.893 474.646 378.314 474.212 378.753 473.617 378.993 473 378.98Z" stroke="#FFFFFF"/><path d="M471.901 367.6 471.578 335.787 474.289 335.787 473.966 367.6 471.901 367.6Z" stroke="#FFFFFF"/></g></g></g><g><g><g><path d="M669.5 513.411C670.209 512.178 670.779 510.87 671.2 509.511L675.6 507.311 675.6 502.311 671.2 500.111C670.832 498.749 670.295 497.439 669.6 496.211L671.2 491.511 667.6 487.911 662.9 489.511C661.673 488.812 660.362 488.271 659 487.9L656.8 483.5 651.8 483.5 649.6 487.9C648.238 488.267 646.928 488.805 645.7 489.5L641 487.9 637.4 491.5 639 496.2C638.305 497.428 637.768 498.738 637.4 500.1L633 502.3 633 507.3 637.4 509.5C637.768 510.862 638.305 512.172 639 513.4L637.4 518.1 640.9 521.6 645.6 520C646.828 520.695 648.138 521.232 649.5 521.6L651.7 526 656.7 526 658.9 521.6C660.262 521.232 661.572 520.695 662.8 520L667.5 521.6 671.1 518.1ZM667.606 514.055 668.8 517.56 666.985 519.325 663.445 518.119 662.581 517.825 661.792 518.285C660.709 518.897 659.553 519.369 658.351 519.69L657.505 519.932 657.111 520.719 655.464 524.019 652.939 524.019 651.292 520.719 650.898 519.932 650.052 519.69C648.85 519.369 647.693 518.897 646.61 518.285L645.822 517.825 644.958 518.119 641.436 519.319 639.696 517.579 640.896 514.056 641.19 513.192 640.73 512.404C640.119 511.32 639.649 510.163 639.33 508.961L639.088 508.115 638.302 507.722 635 506.073 635 503.544 638.3 501.9 639.086 501.506 639.328 500.66C639.647 499.458 640.117 498.302 640.728 497.218L641.188 496.429 640.894 495.566 639.694 492.042 641.534 490.202 645.056 491.402 645.92 491.702 646.708 491.241C647.792 490.631 648.948 490.16 650.15 489.841L651 489.585 651.394 488.798 653.041 485.498 655.569 485.498 657.216 488.798 657.61 489.585 658.455 489.827C659.657 490.146 660.813 490.616 661.897 491.227L662.686 491.688 663.55 491.388 667.071 490.188 668.911 492.028 667.711 495.552 667.417 496.415 667.877 497.204C668.489 498.287 668.961 499.444 669.282 500.646L669.523 501.492 670.31 501.886 673.61 503.534 673.61 506.063 670.31 507.711 669.545 508.094 669.293 508.912C668.917 510.127 668.408 511.297 667.776 512.4L667.316 513.188Z" stroke="#FFFFFF"/><path d="M610.4 538.618 610.4 543.618 614.8 545.818C615.168 547.18 615.705 548.49 616.4 549.718L614.9 554.418 618.4 557.918 623.1 556.418C624.328 557.113 625.638 557.65 627 558.018L629.2 562.418 634.2 562.418 636.4 558.018C637.762 557.65 639.072 557.113 640.3 556.418L645 558.018 648.5 554.418 647 549.818C647.695 548.59 648.232 547.28 648.6 545.918L653 543.718 653 538.718 648.6 536.518C648.232 535.156 647.695 533.846 647 532.618L648.6 527.918 645 524.318 640.3 525.918C639.064 525.24 637.756 524.704 636.4 524.318L634.2 519.918 629.2 519.918 627 524.318C625.638 524.686 624.328 525.223 623.1 525.918L618.4 524.318 614.9 527.818 616.4 532.518C615.722 533.754 615.186 535.062 614.8 536.418ZM616.46 537.818 616.712 537C617.056 535.792 617.531 534.624 618.128 533.519L618.576 532.75 618.305 531.903 617.176 528.362 618.934 526.603 622.456 527.803 623.32 528.098 624.108 527.638C625.191 527.026 626.348 526.553 627.55 526.233L628.4 526 628.794 525.213 630.441 521.913 632.969 521.913 634.616 525.213 634.999 525.979 635.817 526.23C637.025 526.575 638.192 527.05 639.297 527.647L640.086 528.107 640.95 527.812 644.471 526.612 646.311 528.453 645.111 531.976 644.817 532.839 645.277 533.628C645.889 534.712 646.361 535.869 646.682 537.071L646.923 537.916 647.71 538.31 651 539.954 651 542.483 647.7 544.131 646.913 544.525 646.672 545.37C646.351 546.572 645.879 547.729 645.267 548.813L644.815 549.588 645.093 550.441 646.219 553.894 644.45 555.722 640.95 554.529 640.086 554.235 639.297 554.695C638.213 555.308 637.055 555.78 635.852 556.1L635.006 556.342 634.613 557.129 632.966 560.429 630.438 560.429 628.791 557.129 628.397 556.342 627.551 556.1C626.349 555.78 625.192 555.307 624.109 554.695L623.341 554.247 622.493 554.517 618.954 555.647 617.177 553.87 618.306 550.329 618.577 549.482 618.129 548.713C617.517 547.63 617.045 546.473 616.724 545.271L616.482 544.425 615.696 544.031 612.396 542.383 612.396 539.854 615.696 538.206Z" stroke="#FFFFFF"/><path d="M654.3 497.306C650.158 497.306 646.8 500.664 646.8 504.806 646.8 508.948 650.158 512.306 654.3 512.306 658.442 512.306 661.8 508.948 661.8 504.806 661.769 500.677 658.429 497.337 654.3 497.306ZM654.3 510.306C651.264 510.302 648.804 507.842 648.8 504.806 648.84 501.785 651.279 499.346 654.3 499.306 657.336 499.31 659.796 501.77 659.8 504.806 659.762 507.828 657.322 510.27 654.3 510.31Z" stroke="#FFFFFF"/><path d="M631.7 548.721C635.842 548.721 639.2 545.363 639.2 541.221 639.2 537.079 635.842 533.721 631.7 533.721 627.558 533.721 624.2 537.079 624.2 541.221 624.195 545.358 627.545 548.716 631.682 548.721 631.688 548.721 631.694 548.721 631.7 548.721ZM631.7 535.716C634.738 535.716 637.2 538.178 637.2 541.216 637.2 544.254 634.738 546.716 631.7 546.716 628.662 546.716 626.2 544.254 626.2 541.216 626.204 538.18 628.664 535.72 631.7 535.716Z" stroke="#FFFFFF"/></g></g></g></g></svg>