<svg width="664" height="374" viewBox="0 0 664 374" fill="none" xmlns="http://www.w3.org/2000/svg">
<rect width="664" height="374" fill="#F5F5F5"/>
<path id="Text_1" d="M13.0455 28C12.858 27.4261 12.6108 26.9119 12.304 26.4574C12.0028 25.9972 11.642 25.6051 11.2216 25.2812C10.8068 24.9574 10.3352 24.7102 9.80682 24.5398C9.27841 24.3693 8.69886 24.2841 8.06818 24.2841C7.03409 24.2841 6.09375 24.5511 5.24716 25.0852C4.40057 25.6193 3.72727 26.4062 3.22727 27.446C2.72727 28.4858 2.47727 29.7614 2.47727 31.2727C2.47727 32.7841 2.73011 34.0597 3.2358 35.0994C3.74148 36.1392 4.42614 36.9261 5.28977 37.4602C6.15341 37.9943 7.125 38.2614 8.20455 38.2614C9.20455 38.2614 10.0852 38.0483 10.8466 37.6222C11.6136 37.1903 12.2102 36.5824 12.6364 35.7983C13.0682 35.0085 13.2841 34.0795 13.2841 33.0114L13.9318 33.1477H8.68182V31.2727H15.3295V33.1477C15.3295 34.5852 15.0227 35.8352 14.4091 36.8977C13.8011 37.9602 12.9602 38.7841 11.8864 39.3693C10.8182 39.9489 9.59091 40.2386 8.20455 40.2386C6.65909 40.2386 5.30114 39.875 4.13068 39.1477C2.96591 38.4205 2.05682 37.3864 1.40341 36.0455C0.755682 34.7045 0.431818 33.1136 0.431818 31.2727C0.431818 29.892 0.616477 28.6506 0.985795 27.5483C1.3608 26.4403 1.8892 25.4972 2.57102 24.7188C3.25284 23.9403 4.05966 23.3438 4.99148 22.929C5.9233 22.5142 6.94886 22.3068 8.06818 22.3068C8.98864 22.3068 9.84659 22.446 10.642 22.7244C11.4432 22.9972 12.1562 23.3864 12.7812 23.892C13.4119 24.392 13.9375 24.9915 14.358 25.6903C14.7784 26.3835 15.0682 27.1534 15.2273 28H13.0455ZM23.995 40.2727C22.8132 40.2727 21.7763 39.9915 20.8842 39.429C19.9979 38.8665 19.3047 38.0795 18.8047 37.0682C18.3104 36.0568 18.0632 34.875 18.0632 33.5227C18.0632 32.1591 18.3104 30.9687 18.8047 29.9517C19.3047 28.9347 19.9979 28.1449 20.8842 27.5824C21.7763 27.0199 22.8132 26.7386 23.995 26.7386C25.1768 26.7386 26.2109 27.0199 27.0973 27.5824C27.9893 28.1449 28.6825 28.9347 29.1768 29.9517C29.6768 30.9687 29.9268 32.1591 29.9268 33.5227C29.9268 34.875 29.6768 36.0568 29.1768 37.0682C28.6825 38.0795 27.9893 38.8665 27.0973 39.429C26.2109 39.9915 25.1768 40.2727 23.995 40.2727ZM23.995 38.4659C24.8928 38.4659 25.6314 38.2358 26.2109 37.7756C26.7905 37.3153 27.2195 36.7102 27.4979 35.9602C27.7763 35.2102 27.9155 34.3977 27.9155 33.5227C27.9155 32.6477 27.7763 31.8324 27.4979 31.0767C27.2195 30.321 26.7905 29.7102 26.2109 29.2443C25.6314 28.7784 24.8928 28.5455 23.995 28.5455C23.0973 28.5455 22.3587 28.7784 21.7791 29.2443C21.1996 29.7102 20.7706 30.321 20.4922 31.0767C20.2138 31.8324 20.0746 32.6477 20.0746 33.5227C20.0746 34.3977 20.2138 35.2102 20.4922 35.9602C20.7706 36.7102 21.1996 37.3153 21.7791 37.7756C22.3587 38.2358 23.0973 38.4659 23.995 38.4659ZM35.0085 22.5455V40H32.9972V22.5455H35.0085ZM43.6357 40.2727C42.5447 40.2727 41.5817 39.9972 40.7464 39.446C39.9112 38.8892 39.2578 38.1051 38.7862 37.0938C38.3146 36.0767 38.0788 34.875 38.0788 33.4886C38.0788 32.1136 38.3146 30.9205 38.7862 29.9091C39.2578 28.8977 39.9141 28.1165 40.755 27.5653C41.5959 27.0142 42.5675 26.7386 43.6697 26.7386C44.522 26.7386 45.1953 26.8807 45.6896 27.1648C46.1896 27.4432 46.5703 27.7614 46.8317 28.1193C47.0987 28.4716 47.3061 28.7614 47.4538 28.9886H47.6243V22.5455H49.6357V40H47.6925V37.9886H47.4538C47.3061 38.2273 47.0959 38.5284 46.8232 38.892C46.5504 39.25 46.1612 39.571 45.6555 39.8551C45.1499 40.1335 44.4766 40.2727 43.6357 40.2727ZM43.9084 38.4659C44.7152 38.4659 45.397 38.2557 45.9538 37.8352C46.5107 37.4091 46.9339 36.821 47.2237 36.071C47.5135 35.3153 47.6584 34.4432 47.6584 33.4545C47.6584 32.4773 47.5163 31.6222 47.2322 30.8892C46.9482 30.1506 46.5277 29.5767 45.9709 29.1676C45.4141 28.7528 44.7266 28.5455 43.9084 28.5455C43.0561 28.5455 42.3459 28.7642 41.7777 29.2017C41.2152 29.6335 40.7919 30.2216 40.5078 30.9659C40.2294 31.7045 40.0902 32.5341 40.0902 33.4545C40.0902 34.3864 40.2322 35.233 40.5163 35.9943C40.8061 36.75 41.2322 37.3523 41.7947 37.8011C42.3629 38.2443 43.0675 38.4659 43.9084 38.4659Z" fill="black"/>
<rect id="Rect1_jug1" x="175" y="19" width="244" height="27" fill="#D9D9D9"/>
<rect id="Rect1_jug2" x="419" y="19" width="245" height="27" fill="#AABB55" fill-opacity="0.333333"/>
<rect id="Rect2_jug2" x="419" y="92" width="245" height="27" fill="#AABB55" fill-opacity="0.333333"/>
<rect id="Rect3_jug2" x="419" y="165" width="245" height="27" fill="#AABB55" fill-opacity="0.333333"/>
<path id="Text5" d="M13.0455 310C12.858 309.426 12.6108 308.912 12.304 308.457C12.0028 307.997 11.642 307.605 11.2216 307.281C10.8068 306.957 10.3352 306.71 9.80682 306.54C9.27841 306.369 8.69886 306.284 8.06818 306.284C7.03409 306.284 6.09375 306.551 5.24716 307.085C4.40057 307.619 3.72727 308.406 3.22727 309.446C2.72727 310.486 2.47727 311.761 2.47727 313.273C2.47727 314.784 2.73011 316.06 3.2358 317.099C3.74148 318.139 4.42614 318.926 5.28977 319.46C6.15341 319.994 7.125 320.261 8.20455 320.261C9.20455 320.261 10.0852 320.048 10.8466 319.622C11.6136 319.19 12.2102 318.582 12.6364 317.798C13.0682 317.009 13.2841 316.08 13.2841 315.011L13.9318 315.148H8.68182V313.273H15.3295V315.148C15.3295 316.585 15.0227 317.835 14.4091 318.898C13.8011 319.96 12.9602 320.784 11.8864 321.369C10.8182 321.949 9.59091 322.239 8.20455 322.239C6.65909 322.239 5.30114 321.875 4.13068 321.148C2.96591 320.42 2.05682 319.386 1.40341 318.045C0.755682 316.705 0.431818 315.114 0.431818 313.273C0.431818 311.892 0.616477 310.651 0.985795 309.548C1.3608 308.44 1.8892 307.497 2.57102 306.719C3.25284 305.94 4.05966 305.344 4.99148 304.929C5.9233 304.514 6.94886 304.307 8.06818 304.307C8.98864 304.307 9.84659 304.446 10.642 304.724C11.4432 304.997 12.1562 305.386 12.7812 305.892C13.4119 306.392 13.9375 306.991 14.358 307.69C14.7784 308.384 15.0682 309.153 15.2273 310H13.0455ZM23.995 322.273C22.8132 322.273 21.7763 321.991 20.8842 321.429C19.9979 320.866 19.3047 320.08 18.8047 319.068C18.3104 318.057 18.0632 316.875 18.0632 315.523C18.0632 314.159 18.3104 312.969 18.8047 311.952C19.3047 310.935 19.9979 310.145 20.8842 309.582C21.7763 309.02 22.8132 308.739 23.995 308.739C25.1768 308.739 26.2109 309.02 27.0973 309.582C27.9893 310.145 28.6825 310.935 29.1768 311.952C29.6768 312.969 29.9268 314.159 29.9268 315.523C29.9268 316.875 29.6768 318.057 29.1768 319.068C28.6825 320.08 27.9893 320.866 27.0973 321.429C26.2109 321.991 25.1768 322.273 23.995 322.273ZM23.995 320.466C24.8928 320.466 25.6314 320.236 26.2109 319.776C26.7905 319.315 27.2195 318.71 27.4979 317.96C27.7763 317.21 27.9155 316.398 27.9155 315.523C27.9155 314.648 27.7763 313.832 27.4979 313.077C27.2195 312.321 26.7905 311.71 26.2109 311.244C25.6314 310.778 24.8928 310.545 23.995 310.545C23.0973 310.545 22.3587 310.778 21.7791 311.244C21.1996 311.71 20.7706 312.321 20.4922 313.077C20.2138 313.832 20.0746 314.648 20.0746 315.523C20.0746 316.398 20.2138 317.21 20.4922 317.96C20.7706 318.71 21.1996 319.315 21.7791 319.776C22.3587 320.236 23.0973 320.466 23.995 320.466ZM35.0085 304.545V322H32.9972V304.545H35.0085ZM43.6357 322.273C42.5447 322.273 41.5817 321.997 40.7464 321.446C39.9112 320.889 39.2578 320.105 38.7862 319.094C38.3146 318.077 38.0788 316.875 38.0788 315.489C38.0788 314.114 38.3146 312.92 38.7862 311.909C39.2578 310.898 39.9141 310.116 40.755 309.565C41.5959 309.014 42.5675 308.739 43.6697 308.739C44.522 308.739 45.1953 308.881 45.6896 309.165C46.1896 309.443 46.5703 309.761 46.8317 310.119C47.0987 310.472 47.3061 310.761 47.4538 310.989H47.6243V304.545H49.6357V322H47.6925V319.989H47.4538C47.3061 320.227 47.0959 320.528 46.8232 320.892C46.5504 321.25 46.1612 321.571 45.6555 321.855C45.1499 322.134 44.4766 322.273 43.6357 322.273ZM43.9084 320.466C44.7152 320.466 45.397 320.256 45.9538 319.835C46.5107 319.409 46.9339 318.821 47.2237 318.071C47.5135 317.315 47.6584 316.443 47.6584 315.455C47.6584 314.477 47.5163 313.622 47.2322 312.889C46.9482 312.151 46.5277 311.577 45.9709 311.168C45.4141 310.753 44.7266 310.545 43.9084 310.545C43.0561 310.545 42.3459 310.764 41.7777 311.202C41.2152 311.634 40.7919 312.222 40.5078 312.966C40.2294 313.705 40.0902 314.534 40.0902 315.455C40.0902 316.386 40.2322 317.233 40.5163 317.994C40.8061 318.75 41.2322 319.352 41.7947 319.801C42.3629 320.244 43.0675 320.466 43.9084 320.466Z" fill="black"/>
<rect id="Rect5_jug1" x="175" y="311" width="244" height="27" fill="#D9D9D9"/>
<path id="Text4" d="M13.0455 248C12.858 247.426 12.6108 246.912 12.304 246.457C12.0028 245.997 11.642 245.605 11.2216 245.281C10.8068 244.957 10.3352 244.71 9.80682 244.54C9.27841 244.369 8.69886 244.284 8.06818 244.284C7.03409 244.284 6.09375 244.551 5.24716 245.085C4.40057 245.619 3.72727 246.406 3.22727 247.446C2.72727 248.486 2.47727 249.761 2.47727 251.273C2.47727 252.784 2.73011 254.06 3.2358 255.099C3.74148 256.139 4.42614 256.926 5.28977 257.46C6.15341 257.994 7.125 258.261 8.20455 258.261C9.20455 258.261 10.0852 258.048 10.8466 257.622C11.6136 257.19 12.2102 256.582 12.6364 255.798C13.0682 255.009 13.2841 254.08 13.2841 253.011L13.9318 253.148H8.68182V251.273H15.3295V253.148C15.3295 254.585 15.0227 255.835 14.4091 256.898C13.8011 257.96 12.9602 258.784 11.8864 259.369C10.8182 259.949 9.59091 260.239 8.20455 260.239C6.65909 260.239 5.30114 259.875 4.13068 259.148C2.96591 258.42 2.05682 257.386 1.40341 256.045C0.755682 254.705 0.431818 253.114 0.431818 251.273C0.431818 249.892 0.616477 248.651 0.985795 247.548C1.3608 246.44 1.8892 245.497 2.57102 244.719C3.25284 243.94 4.05966 243.344 4.99148 242.929C5.9233 242.514 6.94886 242.307 8.06818 242.307C8.98864 242.307 9.84659 242.446 10.642 242.724C11.4432 242.997 12.1562 243.386 12.7812 243.892C13.4119 244.392 13.9375 244.991 14.358 245.69C14.7784 246.384 15.0682 247.153 15.2273 248H13.0455ZM23.995 260.273C22.8132 260.273 21.7763 259.991 20.8842 259.429C19.9979 258.866 19.3047 258.08 18.8047 257.068C18.3104 256.057 18.0632 254.875 18.0632 253.523C18.0632 252.159 18.3104 250.969 18.8047 249.952C19.3047 248.935 19.9979 248.145 20.8842 247.582C21.7763 247.02 22.8132 246.739 23.995 246.739C25.1768 246.739 26.2109 247.02 27.0973 247.582C27.9893 248.145 28.6825 248.935 29.1768 249.952C29.6768 250.969 29.9268 252.159 29.9268 253.523C29.9268 254.875 29.6768 256.057 29.1768 257.068C28.6825 258.08 27.9893 258.866 27.0973 259.429C26.2109 259.991 25.1768 260.273 23.995 260.273ZM23.995 258.466C24.8928 258.466 25.6314 258.236 26.2109 257.776C26.7905 257.315 27.2195 256.71 27.4979 255.96C27.7763 255.21 27.9155 254.398 27.9155 253.523C27.9155 252.648 27.7763 251.832 27.4979 251.077C27.2195 250.321 26.7905 249.71 26.2109 249.244C25.6314 248.778 24.8928 248.545 23.995 248.545C23.0973 248.545 22.3587 248.778 21.7791 249.244C21.1996 249.71 20.7706 250.321 20.4922 251.077C20.2138 251.832 20.0746 252.648 20.0746 253.523C20.0746 254.398 20.2138 255.21 20.4922 255.96C20.7706 256.71 21.1996 257.315 21.7791 257.776C22.3587 258.236 23.0973 258.466 23.995 258.466ZM35.0085 242.545V260H32.9972V242.545H35.0085ZM43.6357 260.273C42.5447 260.273 41.5817 259.997 40.7464 259.446C39.9112 258.889 39.2578 258.105 38.7862 257.094C38.3146 256.077 38.0788 254.875 38.0788 253.489C38.0788 252.114 38.3146 250.92 38.7862 249.909C39.2578 248.898 39.9141 248.116 40.755 247.565C41.5959 247.014 42.5675 246.739 43.6697 246.739C44.522 246.739 45.1953 246.881 45.6896 247.165C46.1896 247.443 46.5703 247.761 46.8317 248.119C47.0987 248.472 47.3061 248.761 47.4538 248.989H47.6243V242.545H49.6357V260H47.6925V257.989H47.4538C47.3061 258.227 47.0959 258.528 46.8232 258.892C46.5504 259.25 46.1612 259.571 45.6555 259.855C45.1499 260.134 44.4766 260.273 43.6357 260.273ZM43.9084 258.466C44.7152 258.466 45.397 258.256 45.9538 257.835C46.5107 257.409 46.9339 256.821 47.2237 256.071C47.5135 255.315 47.6584 254.443 47.6584 253.455C47.6584 252.477 47.5163 251.622 47.2322 250.889C46.9482 250.151 46.5277 249.577 45.9709 249.168C45.4141 248.753 44.7266 248.545 43.9084 248.545C43.0561 248.545 42.3459 248.764 41.7777 249.202C41.2152 249.634 40.7919 250.222 40.5078 250.966C40.2294 251.705 40.0902 252.534 40.0902 253.455C40.0902 254.386 40.2322 255.233 40.5163 255.994C40.8061 256.75 41.2322 257.352 41.7947 257.801C42.3629 258.244 43.0675 258.466 43.9084 258.466Z" fill="black"/>
<rect id="Rect4_jug1" x="175" y="238" width="244" height="27" fill="#D9D9D9"/>
<path id="Text_3" d="M6.5 186H1.11364V168.545H6.73864C8.43182 168.545 9.88068 168.895 11.0852 169.594C12.2898 170.287 13.2131 171.284 13.8551 172.585C14.4972 173.881 14.8182 175.432 14.8182 177.239C14.8182 179.057 14.4943 180.622 13.8466 181.935C13.1989 183.241 12.2557 184.247 11.017 184.952C9.77841 185.651 8.27273 186 6.5 186ZM3.22727 184.125H6.36364C7.80682 184.125 9.00284 183.847 9.9517 183.29C10.9006 182.733 11.608 181.94 12.0739 180.912C12.5398 179.884 12.7727 178.659 12.7727 177.239C12.7727 175.83 12.5426 174.616 12.0824 173.599C11.6222 172.577 10.9347 171.793 10.0199 171.247C9.10511 170.696 7.96591 170.42 6.60227 170.42H3.22727V184.125ZM18.0909 186V172.909H20.0341V174.886H20.1705C20.4091 174.239 20.8409 173.713 21.4659 173.31C22.0909 172.906 22.7955 172.705 23.5795 172.705C23.7273 172.705 23.9119 172.707 24.1335 172.713C24.3551 172.719 24.5227 172.727 24.6364 172.739V174.784C24.5682 174.767 24.4119 174.741 24.1676 174.707C23.929 174.668 23.6761 174.648 23.4091 174.648C22.7727 174.648 22.2045 174.781 21.7045 175.048C21.2102 175.31 20.8182 175.673 20.5284 176.139C20.2443 176.599 20.1023 177.125 20.1023 177.716V186H18.0909ZM30.8729 186.307C30.0433 186.307 29.2905 186.151 28.6143 185.838C27.9382 185.52 27.4013 185.062 27.0036 184.466C26.6058 183.864 26.407 183.136 26.407 182.284C26.407 181.534 26.5547 180.926 26.8501 180.46C27.1456 179.989 27.5405 179.619 28.0348 179.352C28.5291 179.085 29.0746 178.886 29.6712 178.756C30.2734 178.619 30.8786 178.511 31.4865 178.432C32.282 178.33 32.9268 178.253 33.4212 178.202C33.9212 178.145 34.2848 178.051 34.5121 177.92C34.745 177.79 34.8615 177.562 34.8615 177.239V177.17C34.8615 176.33 34.6314 175.676 34.1712 175.21C33.7166 174.744 33.0263 174.511 32.1001 174.511C31.1399 174.511 30.3871 174.722 29.8416 175.142C29.2962 175.562 28.9126 176.011 28.6911 176.489L26.782 175.807C27.1229 175.011 27.5774 174.392 28.1456 173.949C28.7195 173.5 29.3445 173.187 30.0206 173.011C30.7024 172.83 31.3729 172.739 32.032 172.739C32.4524 172.739 32.9354 172.79 33.4808 172.892C34.032 172.989 34.5632 173.19 35.0746 173.497C35.5916 173.804 36.0206 174.267 36.3615 174.886C36.7024 175.506 36.8729 176.335 36.8729 177.375V186H34.8615V184.227H34.7592C34.6229 184.511 34.3956 184.815 34.0774 185.139C33.7592 185.463 33.3359 185.739 32.8075 185.966C32.2791 186.193 31.6342 186.307 30.8729 186.307ZM31.1797 184.5C31.9751 184.5 32.6456 184.344 33.1911 184.031C33.7422 183.719 34.157 183.315 34.4354 182.821C34.7195 182.327 34.8615 181.807 34.8615 181.261V179.42C34.7763 179.523 34.5888 179.616 34.299 179.702C34.0149 179.781 33.6854 179.852 33.3104 179.915C32.9411 179.972 32.5803 180.023 32.228 180.068C31.8814 180.108 31.6001 180.142 31.3842 180.17C30.8615 180.239 30.3729 180.349 29.9183 180.503C29.4695 180.651 29.1058 180.875 28.8274 181.176C28.5547 181.472 28.4183 181.875 28.4183 182.386C28.4183 183.085 28.6768 183.614 29.1939 183.972C29.7166 184.324 30.3786 184.5 31.1797 184.5ZM45.8281 191.182C44.8565 191.182 44.0213 191.057 43.3224 190.807C42.6236 190.562 42.0412 190.239 41.5753 189.835C41.1151 189.438 40.7486 189.011 40.4759 188.557L42.0781 187.432C42.2599 187.67 42.4901 187.943 42.7685 188.25C43.0469 188.562 43.4276 188.832 43.9105 189.06C44.3991 189.293 45.0384 189.409 45.8281 189.409C46.8849 189.409 47.7571 189.153 48.4446 188.642C49.1321 188.131 49.4759 187.33 49.4759 186.239V183.58H49.3054C49.1577 183.818 48.9474 184.114 48.6747 184.466C48.4077 184.812 48.0213 185.122 47.5156 185.395C47.0156 185.662 46.3395 185.795 45.4872 185.795C44.4304 185.795 43.4815 185.545 42.6406 185.045C41.8054 184.545 41.1435 183.818 40.6548 182.864C40.1719 181.909 39.9304 180.75 39.9304 179.386C39.9304 178.045 40.1662 176.878 40.6378 175.884C41.1094 174.884 41.7656 174.111 42.6065 173.565C43.4474 173.014 44.419 172.739 45.5213 172.739C46.3736 172.739 47.0497 172.881 47.5497 173.165C48.0554 173.443 48.4418 173.761 48.7088 174.119C48.9815 174.472 49.1918 174.761 49.3395 174.989H49.544V172.909H51.4872V186.375C51.4872 187.5 51.2315 188.415 50.7202 189.119C50.2145 189.83 49.5327 190.349 48.6747 190.679C47.8224 191.014 46.8736 191.182 45.8281 191.182ZM45.7599 183.989C46.5668 183.989 47.2486 183.804 47.8054 183.435C48.3622 183.065 48.7855 182.534 49.0753 181.841C49.3651 181.148 49.5099 180.318 49.5099 179.352C49.5099 178.409 49.3679 177.577 49.0838 176.855C48.7997 176.134 48.3793 175.568 47.8224 175.159C47.2656 174.75 46.5781 174.545 45.7599 174.545C44.9077 174.545 44.1974 174.761 43.6293 175.193C43.0668 175.625 42.6435 176.205 42.3594 176.932C42.081 177.659 41.9418 178.466 41.9418 179.352C41.9418 180.261 42.0838 181.065 42.3679 181.764C42.6577 182.457 43.0838 183.003 43.6463 183.401C44.2145 183.793 44.919 183.989 45.7599 183.989ZM60.4872 186.273C59.3054 186.273 58.2685 185.991 57.3764 185.429C56.4901 184.866 55.7969 184.08 55.2969 183.068C54.8026 182.057 54.5554 180.875 54.5554 179.523C54.5554 178.159 54.8026 176.969 55.2969 175.952C55.7969 174.935 56.4901 174.145 57.3764 173.582C58.2685 173.02 59.3054 172.739 60.4872 172.739C61.669 172.739 62.7031 173.02 63.5895 173.582C64.4815 174.145 65.1747 174.935 65.669 175.952C66.169 176.969 66.419 178.159 66.419 179.523C66.419 180.875 66.169 182.057 65.669 183.068C65.1747 184.08 64.4815 184.866 63.5895 185.429C62.7031 185.991 61.669 186.273 60.4872 186.273ZM60.4872 184.466C61.3849 184.466 62.1236 184.236 62.7031 183.776C63.2827 183.315 63.7116 182.71 63.9901 181.96C64.2685 181.21 64.4077 180.398 64.4077 179.523C64.4077 178.648 64.2685 177.832 63.9901 177.077C63.7116 176.321 63.2827 175.71 62.7031 175.244C62.1236 174.778 61.3849 174.545 60.4872 174.545C59.5895 174.545 58.8509 174.778 58.2713 175.244C57.6918 175.71 57.2628 176.321 56.9844 177.077C56.706 177.832 56.5668 178.648 56.5668 179.523C56.5668 180.398 56.706 181.21 56.9844 181.96C57.2628 182.71 57.6918 183.315 58.2713 183.776C58.8509 184.236 59.5895 184.466 60.4872 184.466ZM71.5007 178.125V186H69.4893V172.909H71.4325V174.955H71.603C71.9098 174.29 72.3757 173.756 73.0007 173.352C73.6257 172.943 74.4325 172.739 75.4212 172.739C76.3075 172.739 77.0831 172.92 77.7479 173.284C78.4126 173.642 78.9297 174.188 79.299 174.92C79.6683 175.648 79.853 176.568 79.853 177.682V186H77.8416V177.818C77.8416 176.79 77.5746 175.989 77.0405 175.415C76.5064 174.835 75.7734 174.545 74.8416 174.545C74.1996 174.545 73.6257 174.685 73.12 174.963C72.62 175.241 72.2251 175.648 71.9354 176.182C71.6456 176.716 71.5007 177.364 71.5007 178.125ZM92.8011 175.841L90.9943 176.352C90.8807 176.051 90.7131 175.759 90.4915 175.474C90.2756 175.185 89.9801 174.946 89.6051 174.759C89.2301 174.571 88.75 174.477 88.1648 174.477C87.3636 174.477 86.696 174.662 86.1619 175.031C85.6335 175.395 85.3693 175.858 85.3693 176.42C85.3693 176.92 85.5511 177.315 85.9148 177.605C86.2784 177.895 86.8466 178.136 87.6193 178.33L89.5625 178.807C90.733 179.091 91.6051 179.526 92.179 180.111C92.7528 180.69 93.0398 181.437 93.0398 182.352C93.0398 183.102 92.8239 183.773 92.392 184.364C91.9659 184.955 91.3693 185.42 90.6023 185.761C89.8352 186.102 88.9432 186.273 87.9261 186.273C86.5909 186.273 85.4858 185.983 84.6108 185.403C83.7358 184.824 83.1818 183.977 82.9489 182.864L84.858 182.386C85.0398 183.091 85.3835 183.619 85.8892 183.972C86.4006 184.324 87.0682 184.5 87.892 184.5C88.8295 184.5 89.5739 184.301 90.125 183.903C90.6818 183.5 90.9602 183.017 90.9602 182.455C90.9602 182 90.8011 181.619 90.483 181.312C90.1648 181 89.6761 180.767 89.017 180.614L86.8352 180.102C85.6364 179.818 84.7557 179.378 84.1932 178.781C83.6364 178.179 83.358 177.426 83.358 176.523C83.358 175.784 83.5653 175.131 83.9801 174.562C84.4006 173.994 84.9716 173.548 85.6932 173.224C86.4205 172.901 87.2443 172.739 88.1648 172.739C89.4602 172.739 90.4773 173.023 91.2159 173.591C91.9602 174.159 92.4886 174.909 92.8011 175.841Z" fill="black"/>
<rect id="Rect3_jug1" x="175" y="165" width="244" height="27" fill="#D9D9D9"/>
<path id="Text_2" d="M1.11364 112V94.5455H3.22727V103.205H3.43182L11.2727 94.5455H14.0341L6.70455 102.42L14.0341 112H11.4773L5.40909 103.886L3.22727 106.341V112H1.11364ZM17.3175 112V98.9091H19.3288V112H17.3175ZM18.3402 96.7273C17.9482 96.7273 17.6101 96.5938 17.326 96.3267C17.0476 96.0597 16.9084 95.7386 16.9084 95.3636C16.9084 94.9886 17.0476 94.6676 17.326 94.4006C17.6101 94.1335 17.9482 94 18.3402 94C18.7322 94 19.0675 94.1335 19.3459 94.4006C19.63 94.6676 19.772 94.9886 19.772 95.3636C19.772 95.7386 19.63 96.0597 19.3459 96.3267C19.0675 96.5938 18.7322 96.7273 18.3402 96.7273ZM25.0241 94.5455V112H23.0128V94.5455H25.0241ZM30.7195 94.5455V112H28.7081V94.5455H30.7195ZM43.6761 101.841L41.8693 102.352C41.7557 102.051 41.5881 101.759 41.3665 101.474C41.1506 101.185 40.8551 100.946 40.4801 100.759C40.1051 100.571 39.625 100.477 39.0398 100.477C38.2386 100.477 37.571 100.662 37.0369 101.031C36.5085 101.395 36.2443 101.858 36.2443 102.42C36.2443 102.92 36.4261 103.315 36.7898 103.605C37.1534 103.895 37.7216 104.136 38.4943 104.33L40.4375 104.807C41.608 105.091 42.4801 105.526 43.054 106.111C43.6278 106.69 43.9148 107.437 43.9148 108.352C43.9148 109.102 43.6989 109.773 43.267 110.364C42.8409 110.955 42.2443 111.42 41.4773 111.761C40.7102 112.102 39.8182 112.273 38.8011 112.273C37.4659 112.273 36.3608 111.983 35.4858 111.403C34.6108 110.824 34.0568 109.977 33.8239 108.864L35.733 108.386C35.9148 109.091 36.2585 109.619 36.7642 109.972C37.2756 110.324 37.9432 110.5 38.767 110.5C39.7045 110.5 40.4489 110.301 41 109.903C41.5568 109.5 41.8352 109.017 41.8352 108.455C41.8352 108 41.6761 107.619 41.358 107.312C41.0398 107 40.5511 106.767 39.892 106.614L37.7102 106.102C36.5114 105.818 35.6307 105.378 35.0682 104.781C34.5114 104.179 34.233 103.426 34.233 102.523C34.233 101.784 34.4403 101.131 34.8551 100.562C35.2756 99.9943 35.8466 99.5483 36.5682 99.2244C37.2955 98.9006 38.1193 98.7386 39.0398 98.7386C40.3352 98.7386 41.3523 99.0227 42.0909 99.5909C42.8352 100.159 43.3636 100.909 43.6761 101.841Z" fill="black"/>
<rect id="Rect2_jug1" x="175" y="92" width="244" height="27" fill="#D9D9D9"/>
<rect id="Rect4_jug2" x="419" y="238" width="245" height="27" fill="#AABB55" fill-opacity="0.333333"/>
<rect id="Rect5_jug2" x="419" y="311" width="245" height="27" fill="#AABB55" fill-opacity="0.333333"/>
<line id="Line 1" x1="419.5" x2="419.5" y2="374" stroke="black"/>
</svg>
