<?xml version="1.0" encoding="UTF-8" standalone="no"?>
<!DOCTYPE svg PUBLIC "-//W3C//DTD SVG 1.1//EN" "http://www.w3.org/Graphics/SVG/1.1/DTD/svg11.dtd">
<svg xmlns="http://www.w3.org/2000/svg" version="1.1" viewBox="0.00 0.00 355.00 142.00">
<g stroke-width="2.00" fill="none" stroke-linecap="butt">
<path stroke="#808080" vector-effect="non-scaling-stroke" d="
  M 170.56 37.64
  L 154.55 20.92
  A 0.52 0.51 17.8 0 0 153.67 21.37
  Q 153.80 22.03 154.62 22.88
  Q 163.10 31.66 171.60 40.31
  A 0.64 0.63 52.3 0 1 171.48 41.30
  C 167.86 43.43 165.94 47.07 164.17 50.96
  Q 161.69 56.42 162.45 63.73
  Q 163.10 69.91 164.10 74.13
  Q 165.59 80.40 165.62 81.94
  Q 165.79 88.93 162.06 94.95
  C 161.53 95.82 161.31 98.21 161.45 99.19
  Q 162.36 105.48 160.86 111.38
  A 1.00 1.00 0.0 0 0 162.01 112.61
  Q 166.99 111.66 172.03 112.34
  A 0.91 0.91 0.0 0 0 172.37 110.56
  C 169.80 109.92 165.29 109.33 165.73 105.48
  Q 166.75 96.55 171.90 87.02
  Q 172.16 86.53 172.58 86.90
  C 174.11 88.23 174.61 89.87 174.03 92.02
  C 172.92 96.15 173.37 98.02 175.06 102.45
  Q 176.93 107.38 175.60 112.82
  A 1.04 1.04 0.0 0 0 176.74 114.10
  Q 182.38 113.43 188.49 113.99
  Q 189.50 114.08 189.43 112.82
  Q 189.40 112.33 188.91 112.29
  C 186.17 112.03 180.78 110.06 180.54 106.75
  Q 180.08 100.37 180.44 92.55
  Q 180.60 89.27 179.88 86.02
  C 178.85 81.36 178.53 76.54 176.36 72.06
  Q 175.37 70.03 175.48 68.23
  C 175.91 60.94 177.61 55.31 186.49 56.08
  Q 186.96 56.12 187.30 56.45
  Q 191.76 60.75 195.81 65.44
  Q 197.05 66.86 198.15 67.36
  A 0.70 0.70 0.0 0 0 198.92 66.21
  Q 192.95 60.67 188.30 55.70
  Q 187.81 55.17 187.59 52.95
  A 0.64 0.64 0.0 0 0 186.96 52.37
  Q 184.63 52.33 183.86 51.41
  Q 181.03 48.04 178.00 45.52
  A 0.99 0.99 0.0 0 1 178.57 43.77
  L 181.26 43.60
  A 0.66 0.65 3.5 0 0 181.85 43.09
  C 182.23 41.34 182.80 40.17 182.56 38.30
  Q 182.19 35.36 182.86 32.33
  Q 182.96 31.86 182.56 31.58
  C 177.98 28.38 169.79 30.47 171.05 37.39
  Q 171.23 38.34 170.56 37.64"
/>
<path stroke="#808080" vector-effect="non-scaling-stroke" d="
  M 138.50 89.56
  L 141.31 92.09
  A 0.62 0.61 -58.2 0 1 141.47 92.79
  L 139.12 98.36
  A 0.75 0.72 -46.1 0 0 139.12 98.95
  Q 142.02 105.87 139.01 112.64
  A 0.62 0.62 0.0 0 0 139.56 113.51
  L 151.88 113.92
  Q 152.44 113.94 152.61 113.40
  L 152.78 112.88
  Q 152.97 112.26 152.33 112.16
  C 150.09 111.78 146.73 110.26 145.35 108.90
  Q 143.94 107.51 144.59 105.02
  Q 145.87 100.12 146.99 95.17
  C 147.82 91.49 147.41 89.74 145.89 86.52
  Q 143.06 80.55 139.40 76.64
  C 138.51 75.68 138.39 74.50 138.59 73.31
  Q 138.69 72.66 139.33 72.82
  L 148.06 75.00
  A 0.94 0.94 0.0 0 1 148.63 76.40
  Q 146.70 79.55 146.36 83.23
  A 0.43 0.43 0.0 0 0 147.15 83.49
  C 148.72 80.88 150.02 78.93 152.62 77.02
  C 154.53 75.61 154.93 72.97 152.62 71.53
  Q 152.22 71.28 151.76 71.32
  C 146.71 71.72 144.31 69.98 140.31 67.43
  Q 138.49 66.27 139.90 64.19
  Q 142.35 60.56 141.37 57.02
  C 140.79 54.94 140.92 53.77 142.97 52.85
  A 1.50 1.46 36.7 0 1 143.81 52.74
  C 150.55 53.81 148.73 46.22 147.80 42.85
  Q 147.67 42.35 147.20 42.13
  C 142.70 40.09 135.61 40.72 136.38 47.55
  A 1.03 1.00 66.3 0 1 136.06 48.40
  Q 130.16 53.86 126.12 58.12
  Q 124.20 60.14 122.63 63.03
  Q 122.37 63.51 122.58 64.02
  L 126.55 73.99
  A 1.39 1.38 40.0 0 1 126.62 74.77
  Q 125.61 79.43 128.88 82.60
  A 1.23 1.21 -68.6 0 1 129.26 83.49
  Q 129.25 87.32 131.09 90.69
  A 0.95 0.95 0.0 0 1 130.58 92.04
  Q 125.93 93.76 124.75 98.20
  C 123.71 102.11 122.24 104.11 119.01 106.07
  A 1.16 1.16 0.0 0 0 119.07 108.08
  Q 121.70 109.47 123.75 111.63
  C 125.25 113.20 126.82 113.67 128.65 112.53
  Q 129.22 112.18 128.60 111.90
  C 125.20 110.37 123.80 106.04 126.79 103.26
  Q 131.63 98.78 136.61 94.31
  Q 138.03 93.03 137.68 89.98
  A 0.49 0.49 0.0 0 1 138.50 89.56"
/>
<path stroke="#808080" vector-effect="non-scaling-stroke" d="
  M 215.01 71.71
  A 0.30 0.30 0.0 0 1 215.52 71.47
  Q 219.06 74.80 221.00 79.20
  Q 221.79 80.99 223.73 80.72
  Q 226.09 80.39 226.38 78.14
  A 0.98 0.98 0.0 0 0 225.96 77.20
  Q 220.17 73.33 218.89 66.29
  Q 218.83 65.92 219.06 65.62
  Q 222.84 60.81 223.46 54.74
  A 1.24 1.23 9.1 0 1 224.96 53.66
  L 228.23 54.38
  A 0.66 0.66 0.0 0 0 228.98 53.99
  Q 229.61 52.48 231.23 52.30
  A 0.60 0.60 0.0 0 0 231.73 51.49
  Q 230.82 49.08 232.94 47.45
  Q 233.20 47.25 233.51 47.35
  L 234.33 47.61
  A 0.65 0.65 0.0 0 0 235.07 46.63
  Q 231.14 40.70 225.26 41.50
  Q 223.06 41.80 222.18 43.93
  Q 221.15 46.39 219.58 48.56
  A 1.14 1.13 -74.9 0 1 218.77 49.03
  C 216.89 49.22 215.41 49.03 213.77 50.08
  Q 207.01 54.38 205.20 62.11
  Q 204.49 65.09 204.03 66.31
  C 202.52 70.26 200.24 72.89 203.33 76.98
  C 205.36 79.66 205.94 83.13 207.71 85.96
  Q 208.74 87.61 209.97 89.22
  Q 210.31 89.66 209.86 90.00
  C 207.19 92.01 204.49 93.11 203.24 96.50
  C 201.76 100.53 199.86 102.59 196.84 105.49
  A 1.14 1.14 0.0 0 0 197.06 107.30
  C 200.10 109.06 203.35 112.67 207.00 112.20
  A 0.94 0.94 0.0 0 0 207.27 110.42
  Q 205.04 109.40 203.48 107.48
  Q 203.13 107.04 203.16 106.48
  C 203.36 102.58 212.35 95.78 215.72 93.18
  C 217.02 92.17 217.15 91.45 216.44 90.00
  A 0.49 0.49 0.0 0 1 217.01 89.31
  Q 218.33 89.66 218.71 91.00
  A 1.16 1.13 54.9 0 1 218.55 91.99
  Q 215.68 96.03 216.44 100.76
  Q 216.84 103.29 216.46 104.67
  C 215.86 106.82 213.21 110.58 214.23 112.56
  A 1.75 1.72 72.6 0 0 215.98 113.49
  Q 219.83 113.02 223.60 113.81
  C 225.18 114.14 226.75 114.07 228.14 113.68
  A 0.71 0.71 0.0 0 0 228.22 112.35
  L 221.15 109.34
  Q 220.72 109.16 220.63 108.70
  Q 220.14 105.94 220.94 104.18
  Q 224.02 97.38 226.48 90.10
  A 1.08 1.06 39.3 0 0 226.38 89.18
  Q 221.53 81.41 216.02 74.23
  Q 215.09 73.01 215.01 71.71"
/>
<path stroke="#808080" vector-effect="non-scaling-stroke" d="
  M 89.18 92.69
  Q 85.14 96.08 85.20 101.11
  C 85.24 104.89 84.08 107.26 82.77 110.58
  A 0.83 0.83 0.0 0 0 83.48 111.71
  L 95.79 112.59
  A 0.87 0.87 0.0 0 0 96.23 110.94
  Q 95.20 110.44 93.79 110.12
  Q 89.88 109.22 89.63 106.21
  C 89.36 102.84 94.46 95.00 96.29 92.01
  A 0.94 0.93 -34.0 0 1 98.01 92.34
  C 98.10 92.86 98.08 93.68 97.83 94.22
  Q 96.51 97.09 96.43 100.29
  Q 96.42 100.81 96.69 101.24
  C 99.01 104.98 98.10 108.80 98.27 112.94
  Q 98.29 113.47 98.81 113.48
  C 103.35 113.58 108.00 114.64 112.41 113.39
  A 0.57 0.57 0.0 0 0 112.37 112.28
  C 107.42 111.22 102.20 110.43 102.94 103.79
  C 103.36 100.03 103.34 96.30 104.95 92.80
  C 106.62 89.17 104.69 86.54 104.48 83.17
  Q 104.08 76.83 102.43 70.64
  A 1.82 1.78 47.7 0 1 102.47 69.56
  Q 103.77 66.04 106.35 63.33
  A 1.51 1.49 68.9 0 0 106.74 62.43
  C 107.40 51.68 115.03 60.08 117.28 56.41
  Q 117.79 55.57 117.73 54.01
  Q 117.60 50.87 117.48 47.77
  Q 117.46 47.24 117.03 46.93
  Q 109.88 41.78 104.52 48.47
  Q 104.18 48.90 103.67 49.08
  C 92.59 53.20 88.99 64.09 83.91 73.15
  A 6.02 6.02 0.0 0 0 83.60 78.42
  C 85.36 82.64 86.48 87.95 89.29 91.82
  Q 89.64 92.30 89.18 92.69"
/>
<path stroke="#808080" vector-effect="non-scaling-stroke" d="
  M 247.36 98.27
  L 247.49 104.24
  A 0.53 0.53 0.0 0 1 246.93 104.78
  L 241.42 104.54
  Q 240.87 104.51 240.67 105.03
  Q 239.85 107.27 237.40 106.68
  A 0.57 0.57 0.0 0 0 236.71 107.36
  Q 237.02 108.81 236.53 110.29
  A 1.57 1.57 0.0 0 0 238.87 112.11
  Q 242.43 109.79 246.80 109.61
  Q 247.21 109.59 247.28 110.00
  L 247.57 111.89
  A 0.81 0.81 0.0 0 0 248.47 112.56
  L 251.10 112.19
  Q 251.78 112.10 251.77 111.41
  L 251.75 109.21
  A 0.42 0.42 0.0 0 1 252.28 108.80
  L 254.51 109.38
  Q 254.95 109.50 255.14 109.91
  Q 257.30 114.56 262.63 112.67
  Q 263.26 112.44 262.88 111.89
  L 262.15 110.84
  A 0.36 0.36 0.0 0 1 262.30 110.31
  L 263.53 109.77
  A 0.58 0.58 0.0 0 0 263.65 108.77
  Q 262.31 107.74 262.22 106.06
  Q 262.19 105.56 261.69 105.49
  L 259.99 105.23
  A 0.61 0.60 6.5 0 1 259.47 104.58
  C 259.98 98.84 267.30 94.74 270.78 91.39
  Q 271.18 91.01 271.25 90.46
  Q 271.63 87.49 269.63 85.39
  A 0.79 0.79 0.0 0 1 270.38 84.07
  L 277.09 85.64
  A 0.81 0.80 28.8 0 0 277.86 85.42
  Q 278.88 84.36 280.19 84.75
  Q 280.68 84.89 281.11 84.63
  L 281.47 84.42
  A 1.00 0.99 75.0 0 1 282.97 85.29
  C 282.88 92.47 282.40 99.27 285.25 105.85
  A 0.41 0.40 -1.9 0 1 284.74 106.39
  Q 279.55 104.56 275.03 107.52
  Q 274.63 107.78 274.83 108.22
  Q 275.82 110.40 277.76 111.05
  Q 285.22 113.56 293.29 111.35
  Q 293.72 111.23 294.02 110.91
  L 294.30 110.61
  A 0.41 0.40 54.8 0 1 294.97 110.73
  L 295.43 111.82
  Q 295.62 112.26 296.09 112.26
  L 320.33 112.29
  Q 320.95 112.29 320.94 111.67
  L 320.76 93.82
  Q 320.75 93.38 320.32 93.38
  L 313.55 93.27
  Q 312.89 93.26 313.13 92.64
  L 315.98 85.23
  A 1.26 1.25 15.5 0 1 317.37 84.45
  C 321.45 85.16 322.87 82.57 322.75 78.84
  Q 322.58 73.94 322.92 69.00
  Q 322.95 68.51 322.48 68.35
  L 310.16 64.18
  A 1.30 1.27 87.0 0 1 309.40 63.48
  L 308.80 62.16
  Q 308.53 61.55 307.87 61.55
  Q 304.70 61.54 303.20 59.03
  Q 302.95 58.61 303.03 58.13
  L 304.20 51.60
  A 0.37 0.37 0.0 0 0 303.48 51.45
  L 302.35 56.13
  A 0.70 0.70 0.0 0 1 300.98 56.10
  L 300.00 51.20
  A 0.41 0.41 0.0 0 0 299.19 51.30
  Q 299.39 54.59 300.92 57.85
  C 302.18 60.52 298.60 61.38 296.52 61.25
  Q 295.97 61.22 295.91 61.77
  C 295.76 63.28 295.76 64.60 295.30 66.06
  C 292.11 75.96 292.52 83.68 299.85 90.89
  A 1.51 1.51 0.0 0 1 298.82 93.48
  L 295.54 93.54
  Q 294.90 93.56 294.91 94.20
  L 295.10 106.94
  Q 295.10 107.47 294.58 107.39
  L 288.22 106.45
  A 0.94 0.90 76.7 0 1 287.59 106.04
  C 284.00 100.48 284.69 94.74 284.73 87.25
  Q 284.76 82.31 280.33 80.99
  Q 279.54 80.75 280.08 80.13
  L 280.55 79.60
  A 0.45 0.44 16.4 0 0 280.15 78.87
  Q 277.06 79.29 274.47 81.04
  A 0.96 0.93 -53.9 0 1 273.70 81.17
  Q 269.31 80.05 264.83 80.75
  A 0.78 0.77 72.8 0 1 264.01 80.31
  Q 262.41 76.87 263.12 73.08
  Q 263.25 72.39 263.96 72.45
  L 268.22 72.84
  Q 268.71 72.89 269.06 72.54
  L 270.78 70.82
  A 1.19 1.17 71.9 0 0 271.13 70.11
  L 271.54 66.37
  Q 271.60 65.79 272.20 65.76
  L 273.48 65.72
  Q 274.51 65.68 273.85 64.89
  Q 269.25 59.44 262.20 61.74
  A 1.11 1.10 0.4 0 0 261.50 62.42
  L 260.30 65.74
  A 0.87 0.84 9.6 0 1 259.49 66.30
  Q 246.86 66.17 243.42 78.25
  Q 243.18 79.09 242.62 78.42
  Q 241.67 77.27 240.22 77.62
  A 0.70 0.70 0.0 0 0 239.69 78.35
  Q 239.91 81.03 237.58 81.79
  A 0.73 0.72 73.9 0 0 237.11 82.65
  Q 237.73 85.08 237.66 87.58
  C 237.51 92.31 238.34 96.83 244.53 95.09
  A 1.17 1.17 0.0 0 1 245.46 97.22
  L 243.17 98.63
  A 0.51 0.51 0.0 0 0 243.44 99.58
  Q 245.44 99.54 246.74 98.04
  Q 247.34 97.35 247.36 98.27"
/>
<path stroke="#808080" vector-effect="non-scaling-stroke" d="
  M 66.33 80.41
  Q 67.53 81.87 69.45 81.25
  Q 69.99 81.08 70.14 80.52
  L 70.94 77.44
  A 0.56 0.55 -79.6 0 0 70.47 76.75
  Q 67.80 76.42 68.56 74.08
  Q 68.71 73.61 68.36 73.26
  C 62.57 67.53 59.44 74.24 55.02 76.41
  C 49.39 79.17 40.63 85.29 37.35 91.76
  A 1.13 1.12 42.2 0 0 37.41 92.89
  L 41.15 98.68
  Q 42.15 100.22 40.60 101.20
  Q 36.86 103.57 34.12 107.06
  A 0.78 0.78 0.0 0 0 34.28 108.19
  Q 36.31 109.65 37.09 112.07
  Q 37.30 112.72 37.98 112.72
  L 42.12 112.71
  A 0.46 0.46 0.0 0 0 42.34 111.84
  Q 40.17 110.72 39.61 108.35
  A 0.91 0.89 62.8 0 1 39.88 107.48
  Q 42.67 104.94 45.76 102.75
  C 46.78 102.02 46.96 101.27 46.99 100.07
  A 0.50 0.49 -78.7 0 1 47.66 99.62
  L 49.61 100.37
  Q 50.09 100.56 50.06 101.07
  L 49.26 113.23
  A 0.75 0.74 2.6 0 0 49.99 114.02
  L 59.94 114.20
  A 1.11 1.11 0.0 0 0 60.26 112.03
  L 54.97 110.55
  A 0.74 0.74 0.0 0 1 54.43 109.74
  Q 54.89 106.26 55.27 102.70
  C 55.66 99.04 53.43 96.24 51.25 93.60
  A 0.58 0.57 -39.7 0 1 51.33 92.79
  L 54.44 90.20
  Q 54.78 89.92 55.22 89.97
  Q 60.48 90.66 59.27 95.12
  Q 59.13 95.63 59.53 95.99
  Q 62.64 98.76 65.46 101.79
  C 67.97 104.46 69.78 105.74 68.27 109.10
  A 0.47 0.47 0.0 0 0 68.76 109.76
  L 69.19 109.70
  A 0.38 0.38 0.0 0 1 69.57 110.26
  L 68.58 112.03
  A 0.65 0.65 0.0 0 0 68.94 112.96
  Q 71.12 113.69 73.24 112.90
  A 0.96 0.95 -16.2 0 0 73.84 111.82
  Q 72.50 105.16 69.64 99.00
  A 0.76 0.76 0.0 0 1 70.65 97.99
  Q 74.71 99.93 75.84 104.35
  Q 76.03 105.11 76.77 104.87
  L 78.97 104.15
  A 0.79 0.79 0.0 0 0 79.52 103.37
  C 79.41 100.56 78.24 98.85 75.72 97.38
  Q 70.70 94.43 66.28 90.52
  A 0.59 0.56 -71.4 0 1 66.09 90.11
  L 65.65 80.68
  A 0.39 0.38 -66.5 0 1 66.33 80.41"
/>
<path stroke="#808080" vector-effect="non-scaling-stroke" d="
  M 179.49 53.81
  A 0.55 0.55 0.0 0 0 180.18 54.18
  L 183.06 53.32
  A 0.55 0.55 0.0 0 0 183.30 52.41
  L 178.77 47.65
  A 0.55 0.55 0.0 0 0 177.85 48.19
  L 179.49 53.81"
/>
<path stroke="#808080" vector-effect="non-scaling-stroke" d="
  M 128.8947 63.7478
  A 0.76 0.76 0.0 0 0 128.0811 63.0455
  L 127.9614 63.0543
  A 0.76 0.76 0.0 0 0 127.2591 63.8679
  L 127.6853 69.6722
  A 0.76 0.76 0.0 0 0 128.4989 70.3745
  L 128.6186 70.3657
  A 0.76 0.76 0.0 0 0 129.3209 69.5521
  L 128.8947 63.7478"
/>
<path stroke="#808080" vector-effect="non-scaling-stroke" d="
  M 253.87 84.04
  L 256.91 83.88
  A 0.51 0.51 0.0 0 0 257.39 83.34
  L 257.38 83.19
  A 3.02 1.97 86.9 0 0 255.25 80.28
  L 255.13 80.29
  A 3.02 1.97 86.9 0 0 253.33 83.41
  L 253.33 83.56
  A 0.51 0.51 0.0 0 0 253.87 84.04"
/>
<path stroke="#808080" vector-effect="non-scaling-stroke" d="
  M 241.97 87.64
  L 239.91 88.64
  A 1.60 1.59 27.5 0 0 240.86 91.65
  L 242.13 91.44
  Q 242.69 91.35 242.66 90.78
  L 242.47 87.93
  Q 242.43 87.42 241.97 87.64"
/>
<path stroke="#808080" vector-effect="non-scaling-stroke" d="
  M 257.40 94.52
  A 1.17 1.17 0.0 0 1 255.73 95.51
  Q 253.14 94.28 250.35 95.02
  A 0.59 0.58 76.6 0 0 249.93 95.71
  Q 250.78 99.62 250.21 103.61
  A 1.47 1.47 0.0 0 0 252.62 104.93
  L 253.48 104.18
  A 0.82 0.81 61.8 0 0 253.73 103.33
  L 253.17 101.35
  A 0.77 0.76 70.9 0 1 253.61 100.44
  Q 258.50 98.40 259.12 92.89
  Q 259.17 92.42 258.70 92.44
  L 258.01 92.47
  Q 257.52 92.49 257.49 92.99
  L 257.40 94.52"
/>
</g>
<path fill="#000000" d="
  M 0.00 0.00
  L 355.00 0.00
  L 355.00 142.00
  L 0.00 142.00
  L 0.00 0.00
  Z
  M 170.56 37.64
  L 154.55 20.92
  A 0.52 0.51 17.8 0 0 153.67 21.37
  Q 153.80 22.03 154.62 22.88
  Q 163.10 31.66 171.60 40.31
  A 0.64 0.63 52.3 0 1 171.48 41.30
  C 167.86 43.43 165.94 47.07 164.17 50.96
  Q 161.69 56.42 162.45 63.73
  Q 163.10 69.91 164.10 74.13
  Q 165.59 80.40 165.62 81.94
  Q 165.79 88.93 162.06 94.95
  C 161.53 95.82 161.31 98.21 161.45 99.19
  Q 162.36 105.48 160.86 111.38
  A 1.00 1.00 0.0 0 0 162.01 112.61
  Q 166.99 111.66 172.03 112.34
  A 0.91 0.91 0.0 0 0 172.37 110.56
  C 169.80 109.92 165.29 109.33 165.73 105.48
  Q 166.75 96.55 171.90 87.02
  Q 172.16 86.53 172.58 86.90
  C 174.11 88.23 174.61 89.87 174.03 92.02
  C 172.92 96.15 173.37 98.02 175.06 102.45
  Q 176.93 107.38 175.60 112.82
  A 1.04 1.04 0.0 0 0 176.74 114.10
  Q 182.38 113.43 188.49 113.99
  Q 189.50 114.08 189.43 112.82
  Q 189.40 112.33 188.91 112.29
  C 186.17 112.03 180.78 110.06 180.54 106.75
  Q 180.08 100.37 180.44 92.55
  Q 180.60 89.27 179.88 86.02
  C 178.85 81.36 178.53 76.54 176.36 72.06
  Q 175.37 70.03 175.48 68.23
  C 175.91 60.94 177.61 55.31 186.49 56.08
  Q 186.96 56.12 187.30 56.45
  Q 191.76 60.75 195.81 65.44
  Q 197.05 66.86 198.15 67.36
  A 0.70 0.70 0.0 0 0 198.92 66.21
  Q 192.95 60.67 188.30 55.70
  Q 187.81 55.17 187.59 52.95
  A 0.64 0.64 0.0 0 0 186.96 52.37
  Q 184.63 52.33 183.86 51.41
  Q 181.03 48.04 178.00 45.52
  A 0.99 0.99 0.0 0 1 178.57 43.77
  L 181.26 43.60
  A 0.66 0.65 3.5 0 0 181.85 43.09
  C 182.23 41.34 182.80 40.17 182.56 38.30
  Q 182.19 35.36 182.86 32.33
  Q 182.96 31.86 182.56 31.58
  C 177.98 28.38 169.79 30.47 171.05 37.39
  Q 171.23 38.34 170.56 37.64
  Z
  M 138.50 89.56
  L 141.31 92.09
  A 0.62 0.61 -58.2 0 1 141.47 92.79
  L 139.12 98.36
  A 0.75 0.72 -46.1 0 0 139.12 98.95
  Q 142.02 105.87 139.01 112.64
  A 0.62 0.62 0.0 0 0 139.56 113.51
  L 151.88 113.92
  Q 152.44 113.94 152.61 113.40
  L 152.78 112.88
  Q 152.97 112.26 152.33 112.16
  C 150.09 111.78 146.73 110.26 145.35 108.90
  Q 143.94 107.51 144.59 105.02
  Q 145.87 100.12 146.99 95.17
  C 147.82 91.49 147.41 89.74 145.89 86.52
  Q 143.06 80.55 139.40 76.64
  C 138.51 75.68 138.39 74.50 138.59 73.31
  Q 138.69 72.66 139.33 72.82
  L 148.06 75.00
  A 0.94 0.94 0.0 0 1 148.63 76.40
  Q 146.70 79.55 146.36 83.23
  A 0.43 0.43 0.0 0 0 147.15 83.49
  C 148.72 80.88 150.02 78.93 152.62 77.02
  C 154.53 75.61 154.93 72.97 152.62 71.53
  Q 152.22 71.28 151.76 71.32
  C 146.71 71.72 144.31 69.98 140.31 67.43
  Q 138.49 66.27 139.90 64.19
  Q 142.35 60.56 141.37 57.02
  C 140.79 54.94 140.92 53.77 142.97 52.85
  A 1.50 1.46 36.7 0 1 143.81 52.74
  C 150.55 53.81 148.73 46.22 147.80 42.85
  Q 147.67 42.35 147.20 42.13
  C 142.70 40.09 135.61 40.72 136.38 47.55
  A 1.03 1.00 66.3 0 1 136.06 48.40
  Q 130.16 53.86 126.12 58.12
  Q 124.20 60.14 122.63 63.03
  Q 122.37 63.51 122.58 64.02
  L 126.55 73.99
  A 1.39 1.38 40.0 0 1 126.62 74.77
  Q 125.61 79.43 128.88 82.60
  A 1.23 1.21 -68.6 0 1 129.26 83.49
  Q 129.25 87.32 131.09 90.69
  A 0.95 0.95 0.0 0 1 130.58 92.04
  Q 125.93 93.76 124.75 98.20
  C 123.71 102.11 122.24 104.11 119.01 106.07
  A 1.16 1.16 0.0 0 0 119.07 108.08
  Q 121.70 109.47 123.75 111.63
  C 125.25 113.20 126.82 113.67 128.65 112.53
  Q 129.22 112.18 128.60 111.90
  C 125.20 110.37 123.80 106.04 126.79 103.26
  Q 131.63 98.78 136.61 94.31
  Q 138.03 93.03 137.68 89.98
  A 0.49 0.49 0.0 0 1 138.50 89.56
  Z
  M 215.01 71.71
  A 0.30 0.30 0.0 0 1 215.52 71.47
  Q 219.06 74.80 221.00 79.20
  Q 221.79 80.99 223.73 80.72
  Q 226.09 80.39 226.38 78.14
  A 0.98 0.98 0.0 0 0 225.96 77.20
  Q 220.17 73.33 218.89 66.29
  Q 218.83 65.92 219.06 65.62
  Q 222.84 60.81 223.46 54.74
  A 1.24 1.23 9.1 0 1 224.96 53.66
  L 228.23 54.38
  A 0.66 0.66 0.0 0 0 228.98 53.99
  Q 229.61 52.48 231.23 52.30
  A 0.60 0.60 0.0 0 0 231.73 51.49
  Q 230.82 49.08 232.94 47.45
  Q 233.20 47.25 233.51 47.35
  L 234.33 47.61
  A 0.65 0.65 0.0 0 0 235.07 46.63
  Q 231.14 40.70 225.26 41.50
  Q 223.06 41.80 222.18 43.93
  Q 221.15 46.39 219.58 48.56
  A 1.14 1.13 -74.9 0 1 218.77 49.03
  C 216.89 49.22 215.41 49.03 213.77 50.08
  Q 207.01 54.38 205.20 62.11
  Q 204.49 65.09 204.03 66.31
  C 202.52 70.26 200.24 72.89 203.33 76.98
  C 205.36 79.66 205.94 83.13 207.71 85.96
  Q 208.74 87.61 209.97 89.22
  Q 210.31 89.66 209.86 90.00
  C 207.19 92.01 204.49 93.11 203.24 96.50
  C 201.76 100.53 199.86 102.59 196.84 105.49
  A 1.14 1.14 0.0 0 0 197.06 107.30
  C 200.10 109.06 203.35 112.67 207.00 112.20
  A 0.94 0.94 0.0 0 0 207.27 110.42
  Q 205.04 109.40 203.48 107.48
  Q 203.13 107.04 203.16 106.48
  C 203.36 102.58 212.35 95.78 215.72 93.18
  C 217.02 92.17 217.15 91.45 216.44 90.00
  A 0.49 0.49 0.0 0 1 217.01 89.31
  Q 218.33 89.66 218.71 91.00
  A 1.16 1.13 54.9 0 1 218.55 91.99
  Q 215.68 96.03 216.44 100.76
  Q 216.84 103.29 216.46 104.67
  C 215.86 106.82 213.21 110.58 214.23 112.56
  A 1.75 1.72 72.6 0 0 215.98 113.49
  Q 219.83 113.02 223.60 113.81
  C 225.18 114.14 226.75 114.07 228.14 113.68
  A 0.71 0.71 0.0 0 0 228.22 112.35
  L 221.15 109.34
  Q 220.72 109.16 220.63 108.70
  Q 220.14 105.94 220.94 104.18
  Q 224.02 97.38 226.48 90.10
  A 1.08 1.06 39.3 0 0 226.38 89.18
  Q 221.53 81.41 216.02 74.23
  Q 215.09 73.01 215.01 71.71
  Z
  M 89.18 92.69
  Q 85.14 96.08 85.20 101.11
  C 85.24 104.89 84.08 107.26 82.77 110.58
  A 0.83 0.83 0.0 0 0 83.48 111.71
  L 95.79 112.59
  A 0.87 0.87 0.0 0 0 96.23 110.94
  Q 95.20 110.44 93.79 110.12
  Q 89.88 109.22 89.63 106.21
  C 89.36 102.84 94.46 95.00 96.29 92.01
  A 0.94 0.93 -34.0 0 1 98.01 92.34
  C 98.10 92.86 98.08 93.68 97.83 94.22
  Q 96.51 97.09 96.43 100.29
  Q 96.42 100.81 96.69 101.24
  C 99.01 104.98 98.10 108.80 98.27 112.94
  Q 98.29 113.47 98.81 113.48
  C 103.35 113.58 108.00 114.64 112.41 113.39
  A 0.57 0.57 0.0 0 0 112.37 112.28
  C 107.42 111.22 102.20 110.43 102.94 103.79
  C 103.36 100.03 103.34 96.30 104.95 92.80
  C 106.62 89.17 104.69 86.54 104.48 83.17
  Q 104.08 76.83 102.43 70.64
  A 1.82 1.78 47.7 0 1 102.47 69.56
  Q 103.77 66.04 106.35 63.33
  A 1.51 1.49 68.9 0 0 106.74 62.43
  C 107.40 51.68 115.03 60.08 117.28 56.41
  Q 117.79 55.57 117.73 54.01
  Q 117.60 50.87 117.48 47.77
  Q 117.46 47.24 117.03 46.93
  Q 109.88 41.78 104.52 48.47
  Q 104.18 48.90 103.67 49.08
  C 92.59 53.20 88.99 64.09 83.91 73.15
  A 6.02 6.02 0.0 0 0 83.60 78.42
  C 85.36 82.64 86.48 87.95 89.29 91.82
  Q 89.64 92.30 89.18 92.69
  Z
  M 247.36 98.27
  L 247.49 104.24
  A 0.53 0.53 0.0 0 1 246.93 104.78
  L 241.42 104.54
  Q 240.87 104.51 240.67 105.03
  Q 239.85 107.27 237.40 106.68
  A 0.57 0.57 0.0 0 0 236.71 107.36
  Q 237.02 108.81 236.53 110.29
  A 1.57 1.57 0.0 0 0 238.87 112.11
  Q 242.43 109.79 246.80 109.61
  Q 247.21 109.59 247.28 110.00
  L 247.57 111.89
  A 0.81 0.81 0.0 0 0 248.47 112.56
  L 251.10 112.19
  Q 251.78 112.10 251.77 111.41
  L 251.75 109.21
  A 0.42 0.42 0.0 0 1 252.28 108.80
  L 254.51 109.38
  Q 254.95 109.50 255.14 109.91
  Q 257.30 114.56 262.63 112.67
  Q 263.26 112.44 262.88 111.89
  L 262.15 110.84
  A 0.36 0.36 0.0 0 1 262.30 110.31
  L 263.53 109.77
  A 0.58 0.58 0.0 0 0 263.65 108.77
  Q 262.31 107.74 262.22 106.06
  Q 262.19 105.56 261.69 105.49
  L 259.99 105.23
  A 0.61 0.60 6.5 0 1 259.47 104.58
  C 259.98 98.84 267.30 94.74 270.78 91.39
  Q 271.18 91.01 271.25 90.46
  Q 271.63 87.49 269.63 85.39
  A 0.79 0.79 0.0 0 1 270.38 84.07
  L 277.09 85.64
  A 0.81 0.80 28.8 0 0 277.86 85.42
  Q 278.88 84.36 280.19 84.75
  Q 280.68 84.89 281.11 84.63
  L 281.47 84.42
  A 1.00 0.99 75.0 0 1 282.97 85.29
  C 282.88 92.47 282.40 99.27 285.25 105.85
  A 0.41 0.40 -1.9 0 1 284.74 106.39
  Q 279.55 104.56 275.03 107.52
  Q 274.63 107.78 274.83 108.22
  Q 275.82 110.40 277.76 111.05
  Q 285.22 113.56 293.29 111.35
  Q 293.72 111.23 294.02 110.91
  L 294.30 110.61
  A 0.41 0.40 54.8 0 1 294.97 110.73
  L 295.43 111.82
  Q 295.62 112.26 296.09 112.26
  L 320.33 112.29
  Q 320.95 112.29 320.94 111.67
  L 320.76 93.82
  Q 320.75 93.38 320.32 93.38
  L 313.55 93.27
  Q 312.89 93.26 313.13 92.64
  L 315.98 85.23
  A 1.26 1.25 15.5 0 1 317.37 84.45
  C 321.45 85.16 322.87 82.57 322.75 78.84
  Q 322.58 73.94 322.92 69.00
  Q 322.95 68.51 322.48 68.35
  L 310.16 64.18
  A 1.30 1.27 87.0 0 1 309.40 63.48
  L 308.80 62.16
  Q 308.53 61.55 307.87 61.55
  Q 304.70 61.54 303.20 59.03
  Q 302.95 58.61 303.03 58.13
  L 304.20 51.60
  A 0.37 0.37 0.0 0 0 303.48 51.45
  L 302.35 56.13
  A 0.70 0.70 0.0 0 1 300.98 56.10
  L 300.00 51.20
  A 0.41 0.41 0.0 0 0 299.19 51.30
  Q 299.39 54.59 300.92 57.85
  C 302.18 60.52 298.60 61.38 296.52 61.25
  Q 295.97 61.22 295.91 61.77
  C 295.76 63.28 295.76 64.60 295.30 66.06
  C 292.11 75.96 292.52 83.68 299.85 90.89
  A 1.51 1.51 0.0 0 1 298.82 93.48
  L 295.54 93.54
  Q 294.90 93.56 294.91 94.20
  L 295.10 106.94
  Q 295.10 107.47 294.58 107.39
  L 288.22 106.45
  A 0.94 0.90 76.7 0 1 287.59 106.04
  C 284.00 100.48 284.69 94.74 284.73 87.25
  Q 284.76 82.31 280.33 80.99
  Q 279.54 80.75 280.08 80.13
  L 280.55 79.60
  A 0.45 0.44 16.4 0 0 280.15 78.87
  Q 277.06 79.29 274.47 81.04
  A 0.96 0.93 -53.9 0 1 273.70 81.17
  Q 269.31 80.05 264.83 80.75
  A 0.78 0.77 72.8 0 1 264.01 80.31
  Q 262.41 76.87 263.12 73.08
  Q 263.25 72.39 263.96 72.45
  L 268.22 72.84
  Q 268.71 72.89 269.06 72.54
  L 270.78 70.82
  A 1.19 1.17 71.9 0 0 271.13 70.11
  L 271.54 66.37
  Q 271.60 65.79 272.20 65.76
  L 273.48 65.72
  Q 274.51 65.68 273.85 64.89
  Q 269.25 59.44 262.20 61.74
  A 1.11 1.10 0.4 0 0 261.50 62.42
  L 260.30 65.74
  A 0.87 0.84 9.6 0 1 259.49 66.30
  Q 246.86 66.17 243.42 78.25
  Q 243.18 79.09 242.62 78.42
  Q 241.67 77.27 240.22 77.62
  A 0.70 0.70 0.0 0 0 239.69 78.35
  Q 239.91 81.03 237.58 81.79
  A 0.73 0.72 73.9 0 0 237.11 82.65
  Q 237.73 85.08 237.66 87.58
  C 237.51 92.31 238.34 96.83 244.53 95.09
  A 1.17 1.17 0.0 0 1 245.46 97.22
  L 243.17 98.63
  A 0.51 0.51 0.0 0 0 243.44 99.58
  Q 245.44 99.54 246.74 98.04
  Q 247.34 97.35 247.36 98.27
  Z
  M 66.33 80.41
  Q 67.53 81.87 69.45 81.25
  Q 69.99 81.08 70.14 80.52
  L 70.94 77.44
  A 0.56 0.55 -79.6 0 0 70.47 76.75
  Q 67.80 76.42 68.56 74.08
  Q 68.71 73.61 68.36 73.26
  C 62.57 67.53 59.44 74.24 55.02 76.41
  C 49.39 79.17 40.63 85.29 37.35 91.76
  A 1.13 1.12 42.2 0 0 37.41 92.89
  L 41.15 98.68
  Q 42.15 100.22 40.60 101.20
  Q 36.86 103.57 34.12 107.06
  A 0.78 0.78 0.0 0 0 34.28 108.19
  Q 36.31 109.65 37.09 112.07
  Q 37.30 112.72 37.98 112.72
  L 42.12 112.71
  A 0.46 0.46 0.0 0 0 42.34 111.84
  Q 40.17 110.72 39.61 108.35
  A 0.91 0.89 62.8 0 1 39.88 107.48
  Q 42.67 104.94 45.76 102.75
  C 46.78 102.02 46.96 101.27 46.99 100.07
  A 0.50 0.49 -78.7 0 1 47.66 99.62
  L 49.61 100.37
  Q 50.09 100.56 50.06 101.07
  L 49.26 113.23
  A 0.75 0.74 2.6 0 0 49.99 114.02
  L 59.94 114.20
  A 1.11 1.11 0.0 0 0 60.26 112.03
  L 54.97 110.55
  A 0.74 0.74 0.0 0 1 54.43 109.74
  Q 54.89 106.26 55.27 102.70
  C 55.66 99.04 53.43 96.24 51.25 93.60
  A 0.58 0.57 -39.7 0 1 51.33 92.79
  L 54.44 90.20
  Q 54.78 89.92 55.22 89.97
  Q 60.48 90.66 59.27 95.12
  Q 59.13 95.63 59.53 95.99
  Q 62.64 98.76 65.46 101.79
  C 67.97 104.46 69.78 105.74 68.27 109.10
  A 0.47 0.47 0.0 0 0 68.76 109.76
  L 69.19 109.70
  A 0.38 0.38 0.0 0 1 69.57 110.26
  L 68.58 112.03
  A 0.65 0.65 0.0 0 0 68.94 112.96
  Q 71.12 113.69 73.24 112.90
  A 0.96 0.95 -16.2 0 0 73.84 111.82
  Q 72.50 105.16 69.64 99.00
  A 0.76 0.76 0.0 0 1 70.65 97.99
  Q 74.71 99.93 75.84 104.35
  Q 76.03 105.11 76.77 104.87
  L 78.97 104.15
  A 0.79 0.79 0.0 0 0 79.52 103.37
  C 79.41 100.56 78.24 98.85 75.72 97.38
  Q 70.70 94.43 66.28 90.52
  A 0.59 0.56 -71.4 0 1 66.09 90.11
  L 65.65 80.68
  A 0.39 0.38 -66.5 0 1 66.33 80.41
  Z"
/>
<path fill="#ffffff" d="
  M 171.05 37.39
  C 169.79 30.47 177.98 28.38 182.56 31.58
  Q 182.96 31.86 182.86 32.33
  Q 182.19 35.36 182.56 38.30
  C 182.80 40.17 182.23 41.34 181.85 43.09
  A 0.66 0.65 3.5 0 1 181.26 43.60
  L 178.57 43.77
  A 0.99 0.99 0.0 0 0 178.00 45.52
  Q 181.03 48.04 183.86 51.41
  Q 184.63 52.33 186.96 52.37
  A 0.64 0.64 0.0 0 1 187.59 52.95
  Q 187.81 55.17 188.30 55.70
  Q 192.95 60.67 198.92 66.21
  A 0.70 0.70 0.0 0 1 198.15 67.36
  Q 197.05 66.86 195.81 65.44
  Q 191.76 60.75 187.30 56.45
  Q 186.96 56.12 186.49 56.08
  C 177.61 55.31 175.91 60.94 175.48 68.23
  Q 175.37 70.03 176.36 72.06
  C 178.53 76.54 178.85 81.36 179.88 86.02
  Q 180.60 89.27 180.44 92.55
  Q 180.08 100.37 180.54 106.75
  C 180.78 110.06 186.17 112.03 188.91 112.29
  Q 189.40 112.33 189.43 112.82
  Q 189.50 114.08 188.49 113.99
  Q 182.38 113.43 176.74 114.10
  A 1.04 1.04 0.0 0 1 175.60 112.82
  Q 176.93 107.38 175.06 102.45
  C 173.37 98.02 172.92 96.15 174.03 92.02
  C 174.61 89.87 174.11 88.23 172.58 86.90
  Q 172.16 86.53 171.90 87.02
  Q 166.75 96.55 165.73 105.48
  C 165.29 109.33 169.80 109.92 172.37 110.56
  A 0.91 0.91 0.0 0 1 172.03 112.34
  Q 166.99 111.66 162.01 112.61
  A 1.00 1.00 0.0 0 1 160.86 111.38
  Q 162.36 105.48 161.45 99.19
  C 161.31 98.21 161.53 95.82 162.06 94.95
  Q 165.79 88.93 165.62 81.94
  Q 165.59 80.40 164.10 74.13
  Q 163.10 69.91 162.45 63.73
  Q 161.69 56.42 164.17 50.96
  C 165.94 47.07 167.86 43.43 171.48 41.30
  A 0.64 0.63 52.3 0 0 171.60 40.31
  Q 163.10 31.66 154.62 22.88
  Q 153.80 22.03 153.67 21.37
  A 0.52 0.51 17.8 0 1 154.55 20.92
  L 170.56 37.64
  Q 171.23 38.34 171.05 37.39
  Z
  M 179.49 53.81
  A 0.55 0.55 0.0 0 0 180.18 54.18
  L 183.06 53.32
  A 0.55 0.55 0.0 0 0 183.30 52.41
  L 178.77 47.65
  A 0.55 0.55 0.0 0 0 177.85 48.19
  L 179.49 53.81
  Z"
/>
<path fill="#ffffff" d="
  M 137.68 89.98
  Q 138.03 93.03 136.61 94.31
  Q 131.63 98.78 126.79 103.26
  C 123.80 106.04 125.20 110.37 128.60 111.90
  Q 129.22 112.18 128.65 112.53
  C 126.82 113.67 125.25 113.20 123.75 111.63
  Q 121.70 109.47 119.07 108.08
  A 1.16 1.16 0.0 0 1 119.01 106.07
  C 122.24 104.11 123.71 102.11 124.75 98.20
  Q 125.93 93.76 130.58 92.04
  A 0.95 0.95 0.0 0 0 131.09 90.69
  Q 129.25 87.32 129.26 83.49
  A 1.23 1.21 -68.6 0 0 128.88 82.60
  Q 125.61 79.43 126.62 74.77
  A 1.39 1.38 40.0 0 0 126.55 73.99
  L 122.58 64.02
  Q 122.37 63.51 122.63 63.03
  Q 124.20 60.14 126.12 58.12
  Q 130.16 53.86 136.06 48.40
  A 1.03 1.00 66.3 0 0 136.38 47.55
  C 135.61 40.72 142.70 40.09 147.20 42.13
  Q 147.67 42.35 147.80 42.85
  C 148.73 46.22 150.55 53.81 143.81 52.74
  A 1.50 1.46 36.7 0 0 142.97 52.85
  C 140.92 53.77 140.79 54.94 141.37 57.02
  Q 142.35 60.56 139.90 64.19
  Q 138.49 66.27 140.31 67.43
  C 144.31 69.98 146.71 71.72 151.76 71.32
  Q 152.22 71.28 152.62 71.53
  C 154.93 72.97 154.53 75.61 152.62 77.02
  C 150.02 78.93 148.72 80.88 147.15 83.49
  A 0.43 0.43 0.0 0 1 146.36 83.23
  Q 146.70 79.55 148.63 76.40
  A 0.94 0.94 0.0 0 0 148.06 75.00
  L 139.33 72.82
  Q 138.69 72.66 138.59 73.31
  C 138.39 74.50 138.51 75.68 139.40 76.64
  Q 143.06 80.55 145.89 86.52
  C 147.41 89.74 147.82 91.49 146.99 95.17
  Q 145.87 100.12 144.59 105.02
  Q 143.94 107.51 145.35 108.90
  C 146.73 110.26 150.09 111.78 152.33 112.16
  Q 152.97 112.26 152.78 112.88
  L 152.61 113.40
  Q 152.44 113.94 151.88 113.92
  L 139.56 113.51
  A 0.62 0.62 0.0 0 1 139.01 112.64
  Q 142.02 105.87 139.12 98.95
  A 0.75 0.72 -46.1 0 1 139.12 98.36
  L 141.47 92.79
  A 0.62 0.61 -58.2 0 0 141.31 92.09
  L 138.50 89.56
  A 0.49 0.49 0.0 0 0 137.68 89.98
  Z
  M 128.8947 63.7478
  A 0.76 0.76 0.0 0 0 128.0811 63.0455
  L 127.9614 63.0543
  A 0.76 0.76 0.0 0 0 127.2591 63.8679
  L 127.6853 69.6722
  A 0.76 0.76 0.0 0 0 128.4989 70.3745
  L 128.6186 70.3657
  A 0.76 0.76 0.0 0 0 129.3209 69.5521
  L 128.8947 63.7478
  Z"
/>
<path fill="#ffffff" d="
  M 215.01 71.71
  Q 215.09 73.01 216.02 74.23
  Q 221.53 81.41 226.38 89.18
  A 1.08 1.06 39.3 0 1 226.48 90.10
  Q 224.02 97.38 220.94 104.18
  Q 220.14 105.94 220.63 108.70
  Q 220.72 109.16 221.15 109.34
  L 228.22 112.35
  A 0.71 0.71 0.0 0 1 228.14 113.68
  C 226.75 114.07 225.18 114.14 223.60 113.81
  Q 219.83 113.02 215.98 113.49
  A 1.75 1.72 72.6 0 1 214.23 112.56
  C 213.21 110.58 215.86 106.82 216.46 104.67
  Q 216.84 103.29 216.44 100.76
  Q 215.68 96.03 218.55 91.99
  A 1.16 1.13 54.9 0 0 218.71 91.00
  Q 218.33 89.66 217.01 89.31
  A 0.49 0.49 0.0 0 0 216.44 90.00
  C 217.15 91.45 217.02 92.17 215.72 93.18
  C 212.35 95.78 203.36 102.58 203.16 106.48
  Q 203.13 107.04 203.48 107.48
  Q 205.04 109.40 207.27 110.42
  A 0.94 0.94 0.0 0 1 207.00 112.20
  C 203.35 112.67 200.10 109.06 197.06 107.30
  A 1.14 1.14 0.0 0 1 196.84 105.49
  C 199.86 102.59 201.76 100.53 203.24 96.50
  C 204.49 93.11 207.19 92.01 209.86 90.00
  Q 210.31 89.66 209.97 89.22
  Q 208.74 87.61 207.71 85.96
  C 205.94 83.13 205.36 79.66 203.33 76.98
  C 200.24 72.89 202.52 70.26 204.03 66.31
  Q 204.49 65.09 205.20 62.11
  Q 207.01 54.38 213.77 50.08
  C 215.41 49.03 216.89 49.22 218.77 49.03
  A 1.14 1.13 -74.9 0 0 219.58 48.56
  Q 221.15 46.39 222.18 43.93
  Q 223.06 41.80 225.26 41.50
  Q 231.14 40.70 235.07 46.63
  A 0.65 0.65 0.0 0 1 234.33 47.61
  L 233.51 47.35
  Q 233.20 47.25 232.94 47.45
  Q 230.82 49.08 231.73 51.49
  A 0.60 0.60 0.0 0 1 231.23 52.30
  Q 229.61 52.48 228.98 53.99
  A 0.66 0.66 0.0 0 1 228.23 54.38
  L 224.96 53.66
  A 1.24 1.23 9.1 0 0 223.46 54.74
  Q 222.84 60.81 219.06 65.62
  Q 218.83 65.92 218.89 66.29
  Q 220.17 73.33 225.96 77.20
  A 0.98 0.98 0.0 0 1 226.38 78.14
  Q 226.09 80.39 223.73 80.72
  Q 221.79 80.99 221.00 79.20
  Q 219.06 74.80 215.52 71.47
  A 0.30 0.30 0.0 0 0 215.01 71.71
  Z"
/>
<path fill="#ffffff" d="
  M 89.29 91.82
  C 86.48 87.95 85.36 82.64 83.60 78.42
  A 6.02 6.02 0.0 0 1 83.91 73.15
  C 88.99 64.09 92.59 53.20 103.67 49.08
  Q 104.18 48.90 104.52 48.47
  Q 109.88 41.78 117.03 46.93
  Q 117.46 47.24 117.48 47.77
  Q 117.60 50.87 117.73 54.01
  Q 117.79 55.57 117.28 56.41
  C 115.03 60.08 107.40 51.68 106.74 62.43
  A 1.51 1.49 68.9 0 1 106.35 63.33
  Q 103.77 66.04 102.47 69.56
  A 1.82 1.78 47.7 0 0 102.43 70.64
  Q 104.08 76.83 104.48 83.17
  C 104.69 86.54 106.62 89.17 104.95 92.80
  C 103.34 96.30 103.36 100.03 102.94 103.79
  C 102.20 110.43 107.42 111.22 112.37 112.28
  A 0.57 0.57 0.0 0 1 112.41 113.39
  C 108.00 114.64 103.35 113.58 98.81 113.48
  Q 98.29 113.47 98.27 112.94
  C 98.10 108.80 99.01 104.98 96.69 101.24
  Q 96.42 100.81 96.43 100.29
  Q 96.51 97.09 97.83 94.22
  C 98.08 93.68 98.10 92.86 98.01 92.34
  A 0.94 0.93 -34.0 0 0 96.29 92.01
  C 94.46 95.00 89.36 102.84 89.63 106.21
  Q 89.88 109.22 93.79 110.12
  Q 95.20 110.44 96.23 110.94
  A 0.87 0.87 0.0 0 1 95.79 112.59
  L 83.48 111.71
  A 0.83 0.83 0.0 0 1 82.77 110.58
  C 84.08 107.26 85.24 104.89 85.20 101.11
  Q 85.14 96.08 89.18 92.69
  Q 89.64 92.30 89.29 91.82
  Z"
/>
<path fill="#000000" d="
  M 179.49 53.81
  L 177.85 48.19
  A 0.55 0.55 0.0 0 1 178.77 47.65
  L 183.30 52.41
  A 0.55 0.55 0.0 0 1 183.06 53.32
  L 180.18 54.18
  A 0.55 0.55 0.0 0 1 179.49 53.81
  Z"
/>
<path fill="#ffffff" d="
  M 246.74 98.04
  Q 245.44 99.54 243.44 99.58
  A 0.51 0.51 0.0 0 1 243.17 98.63
  L 245.46 97.22
  A 1.17 1.17 0.0 0 0 244.53 95.09
  C 238.34 96.83 237.51 92.31 237.66 87.58
  Q 237.73 85.08 237.11 82.65
  A 0.73 0.72 73.9 0 1 237.58 81.79
  Q 239.91 81.03 239.69 78.35
  A 0.70 0.70 0.0 0 1 240.22 77.62
  Q 241.67 77.27 242.62 78.42
  Q 243.18 79.09 243.42 78.25
  Q 246.86 66.17 259.49 66.30
  A 0.87 0.84 9.6 0 0 260.30 65.74
  L 261.50 62.42
  A 1.11 1.10 0.4 0 1 262.20 61.74
  Q 269.25 59.44 273.85 64.89
  Q 274.51 65.68 273.48 65.72
  L 272.20 65.76
  Q 271.60 65.79 271.54 66.37
  L 271.13 70.11
  A 1.19 1.17 71.9 0 1 270.78 70.82
  L 269.06 72.54
  Q 268.71 72.89 268.22 72.84
  L 263.96 72.45
  Q 263.25 72.39 263.12 73.08
  Q 262.41 76.87 264.01 80.31
  A 0.78 0.77 72.8 0 0 264.83 80.75
  Q 269.31 80.05 273.70 81.17
  A 0.96 0.93 -53.9 0 0 274.47 81.04
  Q 277.06 79.29 280.15 78.87
  A 0.45 0.44 16.4 0 1 280.55 79.60
  L 280.08 80.13
  Q 279.54 80.75 280.33 80.99
  Q 284.76 82.31 284.73 87.25
  C 284.69 94.74 284.00 100.48 287.59 106.04
  A 0.94 0.90 76.7 0 0 288.22 106.45
  L 294.58 107.39
  Q 295.10 107.47 295.10 106.94
  L 294.91 94.20
  Q 294.90 93.56 295.54 93.54
  L 298.82 93.48
  A 1.51 1.51 0.0 0 0 299.85 90.89
  C 292.52 83.68 292.11 75.96 295.30 66.06
  C 295.76 64.60 295.76 63.28 295.91 61.77
  Q 295.97 61.22 296.52 61.25
  C 298.60 61.38 302.18 60.52 300.92 57.85
  Q 299.39 54.59 299.19 51.30
  A 0.41 0.41 0.0 0 1 300.00 51.20
  L 300.98 56.10
  A 0.70 0.70 0.0 0 0 302.35 56.13
  L 303.48 51.45
  A 0.37 0.37 0.0 0 1 304.20 51.60
  L 303.03 58.13
  Q 302.95 58.61 303.20 59.03
  Q 304.70 61.54 307.87 61.55
  Q 308.53 61.55 308.80 62.16
  L 309.40 63.48
  A 1.30 1.27 87.0 0 0 310.16 64.18
  L 322.48 68.35
  Q 322.95 68.51 322.92 69.00
  Q 322.58 73.94 322.75 78.84
  C 322.87 82.57 321.45 85.16 317.37 84.45
  A 1.26 1.25 15.5 0 0 315.98 85.23
  L 313.13 92.64
  Q 312.89 93.26 313.55 93.27
  L 320.32 93.38
  Q 320.75 93.38 320.76 93.82
  L 320.94 111.67
  Q 320.95 112.29 320.33 112.29
  L 296.09 112.26
  Q 295.62 112.26 295.43 111.82
  L 294.97 110.73
  A 0.41 0.40 54.8 0 0 294.30 110.61
  L 294.02 110.91
  Q 293.72 111.23 293.29 111.35
  Q 285.22 113.56 277.76 111.05
  Q 275.82 110.40 274.83 108.22
  Q 274.63 107.78 275.03 107.52
  Q 279.55 104.56 284.74 106.39
  A 0.41 0.40 -1.9 0 0 285.25 105.85
  C 282.40 99.27 282.88 92.47 282.97 85.29
  A 1.00 0.99 75.0 0 0 281.47 84.42
  L 281.11 84.63
  Q 280.68 84.89 280.19 84.75
  Q 278.88 84.36 277.86 85.42
  A 0.81 0.80 28.8 0 1 277.09 85.64
  L 270.38 84.07
  A 0.79 0.79 0.0 0 0 269.63 85.39
  Q 271.63 87.49 271.25 90.46
  Q 271.18 91.01 270.78 91.39
  C 267.30 94.74 259.98 98.84 259.47 104.58
  A 0.61 0.60 6.5 0 0 259.99 105.23
  L 261.69 105.49
  Q 262.19 105.56 262.22 106.06
  Q 262.31 107.74 263.65 108.77
  A 0.58 0.58 0.0 0 1 263.53 109.77
  L 262.30 110.31
  A 0.36 0.36 0.0 0 0 262.15 110.84
  L 262.88 111.89
  Q 263.26 112.44 262.63 112.67
  Q 257.30 114.56 255.14 109.91
  Q 254.95 109.50 254.51 109.38
  L 252.28 108.80
  A 0.42 0.42 0.0 0 0 251.75 109.21
  L 251.77 111.41
  Q 251.78 112.10 251.10 112.19
  L 248.47 112.56
  A 0.81 0.81 0.0 0 1 247.57 111.89
  L 247.28 110.00
  Q 247.21 109.59 246.80 109.61
  Q 242.43 109.79 238.87 112.11
  A 1.57 1.57 0.0 0 1 236.53 110.29
  Q 237.02 108.81 236.71 107.36
  A 0.57 0.57 0.0 0 1 237.40 106.68
  Q 239.85 107.27 240.67 105.03
  Q 240.87 104.51 241.42 104.54
  L 246.93 104.78
  A 0.53 0.53 0.0 0 0 247.49 104.24
  L 247.36 98.27
  Q 247.34 97.35 246.74 98.04
  Z
  M 253.87 84.04
  L 256.91 83.88
  A 0.51 0.51 0.0 0 0 257.39 83.34
  L 257.38 83.19
  A 3.02 1.97 86.9 0 0 255.25 80.28
  L 255.13 80.29
  A 3.02 1.97 86.9 0 0 253.33 83.41
  L 253.33 83.56
  A 0.51 0.51 0.0 0 0 253.87 84.04
  Z
  M 241.97 87.64
  L 239.91 88.64
  A 1.60 1.59 27.5 0 0 240.86 91.65
  L 242.13 91.44
  Q 242.69 91.35 242.66 90.78
  L 242.47 87.93
  Q 242.43 87.42 241.97 87.64
  Z
  M 257.40 94.52
  A 1.17 1.17 0.0 0 1 255.73 95.51
  Q 253.14 94.28 250.35 95.02
  A 0.59 0.58 76.6 0 0 249.93 95.71
  Q 250.78 99.62 250.21 103.61
  A 1.47 1.47 0.0 0 0 252.62 104.93
  L 253.48 104.18
  A 0.82 0.81 61.8 0 0 253.73 103.33
  L 253.17 101.35
  A 0.77 0.76 70.9 0 1 253.61 100.44
  Q 258.50 98.40 259.12 92.89
  Q 259.17 92.42 258.70 92.44
  L 258.01 92.47
  Q 257.52 92.49 257.49 92.99
  L 257.40 94.52
  Z"
/>
<rect fill="#000000" x="-0.82" y="-3.67" transform="translate(128.29,66.71) rotate(-4.2)" width="1.64" height="7.34" rx="0.76"/>
<path fill="#ffffff" d="
  M 65.65 80.68
  L 66.09 90.11
  A 0.59 0.56 -71.4 0 0 66.28 90.52
  Q 70.70 94.43 75.72 97.38
  C 78.24 98.85 79.41 100.56 79.52 103.37
  A 0.79 0.79 0.0 0 1 78.97 104.15
  L 76.77 104.87
  Q 76.03 105.11 75.84 104.35
  Q 74.71 99.93 70.65 97.99
  A 0.76 0.76 0.0 0 0 69.64 99.00
  Q 72.50 105.16 73.84 111.82
  A 0.96 0.95 -16.2 0 1 73.24 112.90
  Q 71.12 113.69 68.94 112.96
  A 0.65 0.65 0.0 0 1 68.58 112.03
  L 69.57 110.26
  A 0.38 0.38 0.0 0 0 69.19 109.70
  L 68.76 109.76
  A 0.47 0.47 0.0 0 1 68.27 109.10
  C 69.78 105.74 67.97 104.46 65.46 101.79
  Q 62.64 98.76 59.53 95.99
  Q 59.13 95.63 59.27 95.12
  Q 60.48 90.66 55.22 89.97
  Q 54.78 89.92 54.44 90.20
  L 51.33 92.79
  A 0.58 0.57 -39.7 0 0 51.25 93.60
  C 53.43 96.24 55.66 99.04 55.27 102.70
  Q 54.89 106.26 54.43 109.74
  A 0.74 0.74 0.0 0 0 54.97 110.55
  L 60.26 112.03
  A 1.11 1.11 0.0 0 1 59.94 114.20
  L 49.99 114.02
  A 0.75 0.74 2.6 0 1 49.26 113.23
  L 50.06 101.07
  Q 50.09 100.56 49.61 100.37
  L 47.66 99.62
  A 0.50 0.49 -78.7 0 0 46.99 100.07
  C 46.96 101.27 46.78 102.02 45.76 102.75
  Q 42.67 104.94 39.88 107.48
  A 0.91 0.89 62.8 0 0 39.61 108.35
  Q 40.17 110.72 42.34 111.84
  A 0.46 0.46 0.0 0 1 42.12 112.71
  L 37.98 112.72
  Q 37.30 112.72 37.09 112.07
  Q 36.31 109.65 34.28 108.19
  A 0.78 0.78 0.0 0 1 34.12 107.06
  Q 36.86 103.57 40.60 101.20
  Q 42.15 100.22 41.15 98.68
  L 37.41 92.89
  A 1.13 1.12 42.2 0 1 37.35 91.76
  C 40.63 85.29 49.39 79.17 55.02 76.41
  C 59.44 74.24 62.57 67.53 68.36 73.26
  Q 68.71 73.61 68.56 74.08
  Q 67.80 76.42 70.47 76.75
  A 0.56 0.55 -79.6 0 1 70.94 77.44
  L 70.14 80.52
  Q 69.99 81.08 69.45 81.25
  Q 67.53 81.87 66.33 80.41
  A 0.39 0.38 -66.5 0 0 65.65 80.68
  Z"
/>
<path fill="#000000" d="
  M 253.87 84.04
  A 0.51 0.51 0.0 0 1 253.33 83.56
  L 253.33 83.41
  A 3.02 1.97 86.9 0 1 255.13 80.29
  L 255.25 80.28
  A 3.02 1.97 86.9 0 1 257.38 83.19
  L 257.39 83.34
  A 0.51 0.51 0.0 0 1 256.91 83.88
  L 253.87 84.04
  Z"
/>
<path fill="#000000" d="
  M 239.91 88.64
  L 241.97 87.64
  Q 242.43 87.42 242.47 87.93
  L 242.66 90.78
  Q 242.69 91.35 242.13 91.44
  L 240.86 91.65
  A 1.60 1.59 27.5 0 1 239.91 88.64
  Z"
/>
<path fill="#000000" d="
  M 257.40 94.52
  L 257.49 92.99
  Q 257.52 92.49 258.01 92.47
  L 258.70 92.44
  Q 259.17 92.42 259.12 92.89
  Q 258.50 98.40 253.61 100.44
  A 0.77 0.76 70.9 0 0 253.17 101.35
  L 253.73 103.33
  A 0.82 0.81 61.8 0 1 253.48 104.18
  L 252.62 104.93
  A 1.47 1.47 0.0 0 1 250.21 103.61
  Q 250.78 99.62 249.93 95.71
  A 0.59 0.58 76.6 0 1 250.35 95.02
  Q 253.14 94.28 255.73 95.51
  A 1.17 1.17 0.0 0 0 257.40 94.52
  Z"
/>
</svg>
