<svg width="1280" height="720" xmlns="http://www.w3.org/2000/svg" xmlns:xlink="http://www.w3.org/1999/xlink" overflow="hidden"><g><path d="M184.025 135.003C182.81 136.51 182 138.556 182 140.709 182 141.46 182.607 142 183.417 142L196.682 142C197.492 142 198 141.354 198 140.709 198 138.556 197.19 136.51 195.975 135.003 194.455 136.94 192.227 137.911 190 137.911 187.872 137.911 185.645 136.94 184.025 135.003Z" fill="#156082" fill-rule="evenodd"/><path d="M190.001 142C189.684 142 189.369 142.129 189.142 142.382L184.452 147.681C184.003 148.189 184.003 149.108 184.452 149.615 184.679 149.871 184.971 149.997 185.266 149.997 185.558 149.997 185.85 149.871 186.076 149.615L190.044 145.133 194.016 149.615C194.239 149.871 194.557 149.997 194.872 149.997 195.187 149.997 195.502 149.871 195.728 149.615 196 149.108 196 148.189 195.548 147.681L190.858 142.382C190.631 142.129 190.316 142 190.001 142Z" fill="#156082" fill-rule="evenodd"/><path d="M190.048 125.003C187.285 125.003 185 127.288 185 130.05 185 132.809 187.285 135 190.048 135 192.811 135 195 132.809 195 130.05 195 127.288 192.811 125.003 190.048 125.003Z" fill="#156082" fill-rule="evenodd"/><path d="M195.91 157C194.67 158.401 194 160.445 194 162.599 194 163.46 194.573 164 195.146 164L207.66 164C208.424 164 208.997 163.245 208.997 162.599 208.997 160.445 208.33 158.401 207.087 157 205.656 158.832 203.648 159.799 201.453 159.799 199.446 159.799 197.438 158.832 195.91 157Z" fill="#156082" fill-rule="evenodd"/><path d="M202.047 147C199.285 147 197 149.191 197 151.95 197 154.712 199.285 156.997 202.047 156.997 204.712 156.997 206.997 154.712 206.997 151.95 206.997 149.191 204.712 147 202.047 147Z" fill="#156082" fill-rule="evenodd"/><path d="M172.995 158.003C171.759 159.294 171.096 160.955 171.096 162.799 171 163.444 171.57 163.997 172.235 163.997L184.768 163.997C185.43 163.997 186 163.444 186 162.799 186 160.955 185.337 159.294 184.102 158.003 182.679 159.57 180.685 160.401 178.596 160.401 176.508 160.401 174.513 159.57 172.995 158.003Z" fill="#156082" fill-rule="evenodd"/><path d="M178.047 147C175.288 147 173.003 149.191 173.003 151.95 173.003 154.712 175.288 156.997 178.047 156.997 180.712 156.997 183 154.712 183 151.95 183 149.191 180.712 147 178.047 147Z" fill="#156082" fill-rule="evenodd"/></g></svg>